<?xml version="1.0" encoding="UTF-8" standalone="no"?>
<svg
   version="1.1"
   id="svg4220"
   viewBox="0 0 120 120"
   height="128"
   width="128"
   sodipodi:docname="input-keyboard.svg"
   inkscape:version="1.2.2 (b0a8486541, 2022-12-01)"
   xmlns:inkscape="http://www.inkscape.org/namespaces/inkscape"
   xmlns:sodipodi="http://sodipodi.sourceforge.net/DTD/sodipodi-0.dtd"
   xmlns:xlink="http://www.w3.org/1999/xlink"
   xmlns="http://www.w3.org/2000/svg"
   xmlns:svg="http://www.w3.org/2000/svg"
   xmlns:rdf="http://www.w3.org/1999/02/22-rdf-syntax-ns#"
   xmlns:cc="http://creativecommons.org/ns#"
   xmlns:dc="http://purl.org/dc/elements/1.1/">
  <sodipodi:namedview
     id="namedview40"
     pagecolor="#ffffff"
     bordercolor="#000000"
     borderopacity="0.25"
     inkscape:showpageshadow="2"
     inkscape:pageopacity="0.0"
     inkscape:pagecheckerboard="0"
     inkscape:deskcolor="#d1d1d1"
     showgrid="true"
     inkscape:zoom="8.0000001"
     inkscape:cx="85.687499"
     inkscape:cy="90.124999"
     inkscape:window-width="1278"
     inkscape:window-height="817"
     inkscape:window-x="832"
     inkscape:window-y="94"
     inkscape:window-maximized="0"
     inkscape:current-layer="svg4220" />
  <defs
     id="defs4222">
    <linearGradient
       y2="41.941765"
       x2="40.290417"
       y1="6.0581441"
       x1="40.290417"
       gradientTransform="matrix(2.7618241,0,0,1.3935811,-6.283789,26.554109)"
       gradientUnits="userSpaceOnUse"
       id="linearGradient4088"
       xlink:href="#linearGradient3462" />
    <linearGradient
       id="linearGradient3462">
      <stop
         offset="0"
         style="stop-color:#ffffff;stop-opacity:1"
         id="stop3464" />
      <stop
         offset="0.03457849"
         style="stop-color:#ffffff;stop-opacity:0.23529412"
         id="stop3466" />
      <stop
         offset="0.96375686"
         style="stop-color:#ffffff;stop-opacity:0.15686275"
         id="stop3468" />
      <stop
         offset="1"
         style="stop-color:#ffffff;stop-opacity:0.39215687"
         id="stop3470" />
    </linearGradient>
    <linearGradient
       gradientTransform="matrix(2.3125,0,0,1.581711,4.500001,19.836776)"
       gradientUnits="userSpaceOnUse"
       y2="56.103863"
       x2="24.725653"
       y1="7.8793106"
       x1="24.725653"
       id="linearGradient4534"
       xlink:href="#radialGradient4536" />
    <radialGradient
       gradientTransform="matrix(0,1.2316483,-1.625754,0,18.486966,-28.721977)"
       gradientUnits="userSpaceOnUse"
       id="radialGradient4536"
       r="20.396999"
       cy="3.99"
       cx="23.896">
      <stop
         offset="0"
         style="stop-color:#ffffff;stop-opacity:1"
         id="stop4538" />
      <stop
         offset="0.06562372"
         style="stop-color:#d6d6d6;stop-opacity:1;"
         id="stop4540" />
      <stop
         offset="0.81312472"
         style="stop-color:#afafb1;stop-opacity:1;"
         id="stop4542" />
      <stop
         offset="1"
         style="stop-color:#89898b;stop-opacity:1"
         id="stop4544" />
    </radialGradient>
    <linearGradient
       x1="302.85715"
       y1="366.64789"
       x2="302.85715"
       y2="609.50507"
       id="linearGradient19619"
       xlink:href="#linearGradient5048"
       gradientUnits="userSpaceOnUse"
       gradientTransform="matrix(0.08449704,0,0,0.01235294,-6.5396456,38.470822)" />
    <linearGradient
       id="linearGradient5048">
      <stop
         id="stop5050"
         style="stop-color:#000000;stop-opacity:0"
         offset="0" />
      <stop
         id="stop5056"
         style="stop-color:#000000;stop-opacity:1"
         offset="0.5" />
      <stop
         id="stop5052"
         style="stop-color:#000000;stop-opacity:0"
         offset="1" />
    </linearGradient>
    <radialGradient
       cx="605.71429"
       cy="486.64789"
       r="117.14286"
       fx="605.71429"
       fy="486.64789"
       id="radialGradient19616"
       xlink:href="#linearGradient5060"
       gradientUnits="userSpaceOnUse"
       gradientTransform="matrix(-0.0289166,0,0,0.01235294,21.026894,38.470848)" />
    <linearGradient
       id="linearGradient5060">
      <stop
         id="stop5062"
         style="stop-color:#000000;stop-opacity:1"
         offset="0" />
      <stop
         id="stop5064"
         style="stop-color:#000000;stop-opacity:0"
         offset="1" />
    </linearGradient>
    <radialGradient
       cx="605.71429"
       cy="486.64789"
       r="117.14286"
       fx="605.71429"
       fy="486.64789"
       id="radialGradient19613"
       xlink:href="#linearGradient5060"
       gradientUnits="userSpaceOnUse"
       gradientTransform="matrix(0.02891661,0,0,0.01235294,26.973101,38.470848)" />
  </defs>
  <metadata
     id="metadata4225">
    <rdf:RDF>
      <cc:Work
         rdf:about="">
        <dc:format>image/svg+xml</dc:format>
        <dc:type
           rdf:resource="http://purl.org/dc/dcmitype/StillImage" />
      </cc:Work>
    </rdf:RDF>
  </metadata>
  <g
     style="opacity:0.4;stroke-width:0.520756"
     id="g3257"
     transform="matrix(2.3046875,0,0,2,4.6875,-2.5625)">
    <rect
       style="display:inline;overflow:visible;visibility:visible;fill:url(#linearGradient19619);fill-opacity:1;fill-rule:nonzero;stroke:none;stroke-width:0.520756;marker:none"
       id="rect2879"
       y="43"
       x="3.5999999"
       height="2.9999998"
       width="40.799999" />
    <path
       style="display:inline;overflow:visible;visibility:visible;fill:url(#radialGradient19616);fill-opacity:1;fill-rule:nonzero;stroke:none;stroke-width:0.520756;marker:none"
       id="path2881"
       d="m 3.6,43.00013 c 0,0 0,2.999835 0,2.999835 C 2.1108662,46.005612 0,45.327854 0,44.499854 0,43.671856 1.6617608,43.000131 3.6,43.00013 Z" />
    <path
       style="display:inline;overflow:visible;visibility:visible;fill:url(#radialGradient19613);fill-opacity:1;fill-rule:nonzero;stroke:none;stroke-width:0.520756;marker:none"
       id="path2883"
       d="m 44.4,43.00013 c 0,0 0,2.999835 0,2.999835 1.489133,0.0056 3.6,-0.672111 3.6,-1.500111 0,-0.827998 -1.661761,-1.499723 -3.6,-1.499724 z" />
  </g>
  <rect
     style="color:#000000;display:inline;overflow:visible;visibility:visible;fill:url(#linearGradient4534);fill-opacity:1;fill-rule:nonzero;stroke:#000000;stroke-width:0.9375;stroke-miterlimit:4;stroke-dasharray:none;stroke-opacity:0.34;marker:none;enable-background:accumulate"
     id="rect5505-21-3-8-5-2"
     y="33.28125"
     x="7.96875"
     ry="2.8125"
     rx="2.8125"
     height="53.4375"
     width="104.0625" />
  <rect
     style="opacity:0.6;fill:none;stroke:url(#linearGradient4088);stroke-width:0.9375;stroke-linecap:round;stroke-linejoin:round;stroke-miterlimit:4;stroke-dasharray:none;stroke-dashoffset:0;stroke-opacity:1"
     id="rect6741-5-0-2-3"
     y="34.21875"
     x="8.90625"
     ry="1.875"
     rx="1.875"
     height="51.5625"
     width="102.1875" />
  <path
     id="path31498"
     style="color:#000000;clip-rule:nonzero;display:inline;overflow:visible;visibility:visible;isolation:auto;mix-blend-mode:normal;color-interpolation:sRGB;color-interpolation-filters:linearRGB;solid-color:#000000;solid-opacity:1;fill:#000000;fill-opacity:0.15;fill-rule:nonzero;stroke:none;stroke-width:0;stroke-linecap:butt;stroke-linejoin:miter;stroke-miterlimit:4;stroke-dasharray:none;stroke-dashoffset:0;stroke-opacity:1;marker:none;color-rendering:auto;image-rendering:auto;shape-rendering:auto;text-rendering:auto;enable-background:accumulate"
     d="m 14.0625,44.0625 c -1.022533,0 -1.875,0.852466 -1.875,1.875 v 5.625 c 0,0.590649 0.322541,1.060612 0.759888,1.40625 C 12.510041,53.314388 12.1875,53.784351 12.1875,54.375 V 60 c 0,0.590649 0.322541,1.060612 0.759888,1.40625 -0.437347,0.345638 -0.759888,0.815601 -0.759888,1.40625 v 5.625 c 0,0.590649 0.322541,1.060612 0.759888,1.40625 C 12.510041,70.189388 12.1875,70.659351 12.1875,71.25 v 5.625 c 0,1.022534 0.852467,1.875 1.875,1.875 h 5.625 c 0.590006,0 1.060578,-0.321519 1.40625,-0.758057 C 21.438391,78.427915 21.906982,78.75 22.496338,78.75 H 28.125 c 0.590771,0 1.06065,-0.322533 1.40625,-0.759888 C 29.876889,78.427459 30.346852,78.75 30.9375,78.75 h 58.125 c 0.590006,0 1.060578,-0.321519 1.40625,-0.758057 C 90.813391,78.427915 91.281982,78.75 91.871338,78.75 H 97.5 c 0.590129,0 1.060616,-0.321509 1.40625,-0.758057 0.344642,0.435972 0.813236,0.758057 1.40259,0.758057 h 5.62866 c 1.02275,0 1.875,-0.852576 1.875,-1.875 V 71.25 c 0,-0.590586 -0.32256,-1.060592 -0.75989,-1.40625 0.43735,-0.34564 0.75989,-0.815606 0.75989,-1.40625 v -5.625 c 0,-0.590644 -0.32254,-1.06061 -0.75989,-1.40625 0.43735,-0.34564 0.75989,-0.815606 0.75989,-1.40625 v -5.625 c 0,-0.590644 -0.32254,-1.06061 -0.75989,-1.40625 0.43735,-0.34564 0.75989,-0.815606 0.75989,-1.40625 v -5.625 c 0,-1.022526 -0.85247,-1.875 -1.875,-1.875 h -7.5 c -0.59376,0 -1.064451,0.325946 -1.409912,0.767212 C 96.681773,44.397083 96.211893,44.080811 95.625,44.080811 H 90 c -0.586893,0 -1.056773,0.316272 -1.402588,0.748901 C 88.251951,44.388446 87.78126,44.0625 87.1875,44.0625 h -5.625 c -0.590648,0 -1.060611,0.322541 -1.40625,0.759888 C 79.810649,44.385033 79.340771,44.0625 78.75,44.0625 h -5.628662 c -0.589355,0 -1.057947,0.322086 -1.402588,0.758057 C 71.373116,44.384011 70.902628,44.0625 70.3125,44.0625 h -5.628662 c -0.589355,0 -1.057947,0.322086 -1.402588,0.758057 C 62.935616,44.384011 62.465128,44.0625 61.875,44.0625 h -5.628662 c -0.589355,0 -1.057947,0.322086 -1.402588,0.758057 C 54.498116,44.384011 54.027628,44.0625 53.4375,44.0625 h -5.628662 c -0.589355,0 -1.057947,0.322086 -1.402588,0.758057 C 46.060616,44.384011 45.590128,44.0625 45,44.0625 h -5.628662 c -0.589355,0 -1.057947,0.322086 -1.402588,0.758057 C 37.623116,44.384011 37.152628,44.0625 36.5625,44.0625 h -5.628662 c -0.589355,0 -1.057947,0.322086 -1.402588,0.758057 C 29.185616,44.384011 28.715128,44.0625 28.125,44.0625 h -5.628662 c -0.589355,0 -1.057947,0.322086 -1.402588,0.758057 C 20.748078,44.38402 20.277506,44.0625 19.6875,44.0625 Z m 16.40625,25.490112 c 0.0035,0.0044 0.0019,0.0121 0.0055,0.01648 -0.0057,0.0017 -0.0089,0.0056 -0.01465,0.0073 0.0054,-0.0066 0.0039,-0.01709 0.0092,-0.0238 z m 59.0625,0.0018 c 0.0049,0.0062 0.0042,0.01581 0.0092,0.02197 -0.0055,-0.0017 -0.0092,-0.0038 -0.01465,-0.0055 0.0035,-0.0044 0.002,-0.01206 0.0055,-0.01648 z m -59.990845,0.556641 c -0.0054,0.0066 -0.0039,0.01709 -0.0092,0.0238 -0.0035,-0.0044 -0.0019,-0.0121 -0.0055,-0.01648 0.0057,-0.0017 0.0089,-0.0056 0.01465,-0.0073 z m 60.91919,0 c 0.0055,0.0017 0.0092,0.0038 0.01465,0.0055 -0.0035,0.0044 -0.002,0.01206 -0.0055,0.01648 -0.0049,-0.0062 -0.0042,-0.01581 -0.0092,-0.02197 z" />
  <path
     id="path31379"
     style="color:#000000;clip-rule:nonzero;display:inline;overflow:visible;visibility:visible;isolation:auto;mix-blend-mode:normal;color-interpolation:sRGB;color-interpolation-filters:linearRGB;solid-color:#000000;solid-opacity:1;fill:#000000;fill-opacity:0.2;fill-rule:nonzero;stroke:none;stroke-width:0.999994;stroke-linecap:butt;stroke-linejoin:miter;stroke-miterlimit:4;stroke-dasharray:none;stroke-dashoffset:0;stroke-opacity:1;marker:none;color-rendering:auto;image-rendering:auto;shape-rendering:auto;text-rendering:auto;enable-background:accumulate"
     d="m 14.0625,45 c -0.519373,0 -0.9375,0.418126 -0.9375,0.9375 v 5.625 c 0,0.519374 0.418127,0.9375 0.9375,0.9375 h 5.625 c 0.519374,0 0.9375,-0.418126 0.9375,-0.9375 v -5.625 C 20.625,45.418126 20.206874,45 19.6875,45 Z m 8.433838,0 C 21.976886,45 21.5625,45.4183 21.5625,45.9375 v 5.625 c 0,0.5192 0.414386,0.9375 0.933838,0.9375 H 28.125 c 0.51945,0 0.9375,-0.4183 0.9375,-0.9375 v -5.625 C 29.0625,45.4183 28.64445,45 28.125,45 Z m 8.4375,0 C 30.414386,45 30,45.4183 30,45.9375 v 5.625 C 30,52.0817 30.414386,52.5 30.933838,52.5 H 36.5625 c 0.519451,0 0.9375,-0.4183 0.9375,-0.9375 v -5.625 C 37.5,45.4183 37.081951,45 36.5625,45 Z m 8.4375,0 C 38.851886,45 38.4375,45.4183 38.4375,45.9375 v 5.625 c 0,0.5192 0.414386,0.9375 0.933838,0.9375 H 45 c 0.51945,0 0.9375,-0.4183 0.9375,-0.9375 v -5.625 C 45.9375,45.4183 45.51945,45 45,45 Z m 8.4375,0 C 47.289386,45 46.875,45.4183 46.875,45.9375 v 5.625 c 0,0.5192 0.414386,0.9375 0.933838,0.9375 H 53.4375 c 0.519451,0 0.9375,-0.4183 0.9375,-0.9375 v -5.625 C 54.375,45.4183 53.956951,45 53.4375,45 Z m 8.4375,0 C 55.726886,45 55.3125,45.4183 55.3125,45.9375 v 5.625 c 0,0.5192 0.414386,0.9375 0.933838,0.9375 H 61.875 c 0.519449,0 0.9375,-0.4183 0.9375,-0.9375 v -5.625 C 62.8125,45.4183 62.394449,45 61.875,45 Z m 8.4375,0 C 64.164386,45 63.75,45.4183 63.75,45.9375 v 5.625 c 0,0.5192 0.414386,0.9375 0.933838,0.9375 H 70.3125 c 0.519451,0 0.9375,-0.4183 0.9375,-0.9375 v -5.625 C 71.25,45.4183 70.831951,45 70.3125,45 Z m 8.4375,0 C 72.601886,45 72.1875,45.4183 72.1875,45.9375 v 5.625 c 0,0.5192 0.414386,0.9375 0.933838,0.9375 H 78.75 c 0.51945,0 0.9375,-0.4183 0.9375,-0.9375 v -5.625 C 79.6875,45.4183 79.26945,45 78.75,45 Z m 8.441162,0 c -0.519374,0 -0.9375,0.418126 -0.9375,0.9375 v 5.625 c 0,0.519374 0.418126,0.9375 0.9375,0.9375 h 5.625 c 0.519373,0 0.9375,-0.418126 0.9375,-0.9375 v -5.625 C 88.125,45.418126 87.706873,45 87.1875,45 Z m 16.875,0 C 97.918126,45 97.5,45.418126 97.5,45.9375 v 5.625 c 0,0.519374 0.418126,0.9375 0.9375,0.9375 h 7.5 c 0.51938,0 0.9375,-0.418126 0.9375,-0.9375 v -5.625 C 106.875,45.418126 106.45688,45 105.9375,45 Z M 90,45.018311 c -0.519374,0 -0.9375,0.418125 -0.9375,0.9375 v 5.625 c 0,0.519374 0.418126,0.9375 0.9375,0.9375 h 5.625 c 0.519374,0 0.9375,-0.418126 0.9375,-0.9375 v -5.625 c 0,-0.519375 -0.418126,-0.9375 -0.9375,-0.9375 z M 14.0625,53.4375 c -0.519373,0 -0.9375,0.418126 -0.9375,0.9375 V 60 c 0,0.519374 0.418127,0.9375 0.9375,0.9375 H 24.375 c 0.519374,0 0.9375,-0.418126 0.9375,-0.9375 v -5.625 c 0,-0.519374 -0.418126,-0.9375 -0.9375,-0.9375 z m 13.125,0 c -0.519374,0 -0.9375,0.418126 -0.9375,0.9375 V 60 c 0,0.519374 0.418126,0.9375 0.9375,0.9375 h 5.625 c 0.519374,0 0.9375,-0.418126 0.9375,-0.9375 v -5.625 c 0,-0.519374 -0.418127,-0.9375 -0.9375,-0.9375 z m 8.433838,0 c -0.519451,0 -0.933838,0.4183 -0.933838,0.9375 V 60 c 0,0.519199 0.414387,0.9375 0.933838,0.9375 H 41.25 c 0.519451,0 0.9375,-0.418301 0.9375,-0.9375 v -5.625 c 0,-0.5192 -0.418049,-0.9375 -0.9375,-0.9375 z m 8.4375,0 c -0.519452,0 -0.933838,0.4183 -0.933838,0.9375 V 60 c 0,0.519199 0.414386,0.9375 0.933838,0.9375 H 49.6875 c 0.519451,0 0.9375,-0.418301 0.9375,-0.9375 v -5.625 c 0,-0.5192 -0.418049,-0.9375 -0.9375,-0.9375 z m 8.4375,0 c -0.519451,0 -0.933838,0.4183 -0.933838,0.9375 V 60 c 0,0.519199 0.414387,0.9375 0.933838,0.9375 H 58.125 c 0.519451,0 0.9375,-0.418301 0.9375,-0.9375 v -5.625 c 0,-0.5192 -0.418049,-0.9375 -0.9375,-0.9375 z m 8.4375,0 C 60.414386,53.4375 60,53.8558 60,54.375 V 60 c 0,0.519199 0.414386,0.9375 0.933838,0.9375 H 66.5625 C 67.081951,60.9375 67.5,60.519199 67.5,60 v -5.625 c 0,-0.5192 -0.418049,-0.9375 -0.9375,-0.9375 z m 8.4375,0 c -0.519451,0 -0.933838,0.4183 -0.933838,0.9375 V 60 c 0,0.519199 0.414387,0.9375 0.933838,0.9375 H 75 c 0.519451,0 0.9375,-0.418301 0.9375,-0.9375 v -5.625 c 0,-0.5192 -0.418049,-0.9375 -0.9375,-0.9375 z m 8.4375,0 c -0.519452,0 -0.933838,0.4183 -0.933838,0.9375 V 60 c 0,0.519199 0.414386,0.9375 0.933838,0.9375 H 83.4375 c 0.519451,0 0.9375,-0.418301 0.9375,-0.9375 v -5.625 c 0,-0.5192 -0.418049,-0.9375 -0.9375,-0.9375 z m 8.4375,0 c -0.519451,0 -0.933838,0.4183 -0.933838,0.9375 V 60 c 0,0.519199 0.414387,0.9375 0.933838,0.9375 H 91.875 c 0.519451,0 0.9375,-0.418301 0.9375,-0.9375 v -5.625 c 0,-0.5192 -0.418049,-0.9375 -0.9375,-0.9375 z m 8.441162,0 c -0.519375,0 -0.9375,0.418126 -0.9375,0.9375 V 60 c 0,0.519374 0.418125,0.9375 0.9375,0.9375 h 11.25 c 0.51938,0 0.9375,-0.418126 0.9375,-0.9375 v -5.625 c 0,-0.519374 -0.41812,-0.9375 -0.9375,-0.9375 z m -80.625,8.4375 c -0.519373,0 -0.9375,0.418126 -0.9375,0.9375 v 5.625 c 0,0.519374 0.418127,0.9375 0.9375,0.9375 h 15 C 29.581874,69.375 30,68.956874 30,68.4375 v -5.625 C 30,62.293126 29.581874,61.875 29.0625,61.875 Z m 17.8125,0 c -0.51945,0 -0.9375,0.4183 -0.9375,0.9375 v 5.625 c 0,0.5192 0.41805,0.9375 0.9375,0.9375 h 5.628662 c 0.519452,0 0.933838,-0.4183 0.933838,-0.9375 v -5.625 c 0,-0.5192 -0.414386,-0.9375 -0.933838,-0.9375 z m 8.4375,0 c -0.519451,0 -0.9375,0.4183 -0.9375,0.9375 v 5.625 c 0,0.5192 0.418049,0.9375 0.9375,0.9375 h 5.628662 c 0.519451,0 0.933838,-0.4183 0.933838,-0.9375 v -5.625 c 0,-0.5192 -0.414387,-0.9375 -0.933838,-0.9375 z m 8.4375,0 c -0.519449,0 -0.9375,0.4183 -0.9375,0.9375 v 5.625 c 0,0.5192 0.418051,0.9375 0.9375,0.9375 h 5.628662 c 0.519451,0 0.933838,-0.4183 0.933838,-0.9375 v -5.625 c 0,-0.5192 -0.414387,-0.9375 -0.933838,-0.9375 z m 8.4375,0 c -0.519451,0 -0.9375,0.4183 -0.9375,0.9375 v 5.625 c 0,0.5192 0.418049,0.9375 0.9375,0.9375 h 5.628662 c 0.519451,0 0.933838,-0.4183 0.933838,-0.9375 v -5.625 c 0,-0.5192 -0.414387,-0.9375 -0.933838,-0.9375 z m 8.4375,0 c -0.51945,0 -0.9375,0.4183 -0.9375,0.9375 v 5.625 c 0,0.5192 0.41805,0.9375 0.9375,0.9375 h 5.628662 c 0.519452,0 0.933838,-0.4183 0.933838,-0.9375 v -5.625 c 0,-0.5192 -0.414386,-0.9375 -0.933838,-0.9375 z m 8.4375,0 c -0.519451,0 -0.9375,0.4183 -0.9375,0.9375 v 5.625 c 0,0.5192 0.418049,0.9375 0.9375,0.9375 h 5.628662 c 0.519451,0 0.933838,-0.4183 0.933838,-0.9375 v -5.625 c 0,-0.5192 -0.414387,-0.9375 -0.933838,-0.9375 z m 8.4375,0 c -0.51945,0 -0.9375,0.4183 -0.9375,0.9375 v 5.625 c 0,0.5192 0.41805,0.9375 0.9375,0.9375 h 5.628662 c 0.519452,0 0.933838,-0.4183 0.933838,-0.9375 v -5.625 c 0,-0.5192 -0.414386,-0.9375 -0.933838,-0.9375 z m 8.4375,0 C 90.418126,61.875 90,62.293126 90,62.8125 v 5.625 c 0,0.519374 0.418126,0.9375 0.9375,0.9375 h 15 c 0.51938,0 0.9375,-0.418126 0.9375,-0.9375 v -5.625 c 0,-0.519374 -0.41812,-0.9375 -0.9375,-0.9375 z m -76.875,8.4375 c -0.519373,0 -0.9375,0.418126 -0.9375,0.9375 v 5.625 c 0,0.519374 0.418127,0.9375 0.9375,0.9375 h 5.625 c 0.519374,0 0.9375,-0.418126 0.9375,-0.9375 V 71.25 c 0,-0.519374 -0.418126,-0.9375 -0.9375,-0.9375 z m 8.433838,0 c -0.519452,0 -0.933838,0.418299 -0.933838,0.9375 v 5.625 c 0,0.519199 0.414386,0.9375 0.933838,0.9375 H 28.125 c 0.51945,0 0.9375,-0.418301 0.9375,-0.9375 V 71.25 c 0,-0.519201 -0.41805,-0.9375 -0.9375,-0.9375 z m 8.441162,0 C 30.418126,70.3125 30,70.730626 30,71.25 v 5.625 c 0,0.519374 0.418126,0.9375 0.9375,0.9375 h 58.125 C 89.581874,77.8125 90,77.394374 90,76.875 V 71.25 c 0,-0.519374 -0.418126,-0.9375 -0.9375,-0.9375 z m 60.933838,0 c -0.519452,0 -0.933838,0.418299 -0.933838,0.9375 v 5.625 c 0,0.519199 0.414386,0.9375 0.933838,0.9375 H 97.5 c 0.519459,0 0.9375,-0.418301 0.9375,-0.9375 V 71.25 c 0,-0.519201 -0.418041,-0.9375 -0.9375,-0.9375 z m 8.437502,0 c -0.519455,0 -0.93384,0.418299 -0.93384,0.9375 v 5.625 c 0,0.519199 0.414385,0.9375 0.93384,0.9375 h 5.62866 c 0.51946,0 0.9375,-0.418301 0.9375,-0.9375 V 71.25 c 0,-0.519201 -0.41804,-0.9375 -0.9375,-0.9375 z" />
  <path
     id="path1810-89"
     style="color:#000000;clip-rule:nonzero;display:inline;overflow:visible;visibility:visible;isolation:auto;mix-blend-mode:normal;color-interpolation:sRGB;color-interpolation-filters:linearRGB;solid-color:#000000;solid-opacity:1;fill:#fafafa;fill-opacity:1;fill-rule:nonzero;stroke:none;stroke-width:0.999994;stroke-linecap:butt;stroke-linejoin:miter;stroke-miterlimit:4;stroke-dasharray:none;stroke-dashoffset:0;stroke-opacity:1;marker:none;color-rendering:auto;image-rendering:auto;shape-rendering:auto;text-rendering:auto;enable-background:accumulate"
     d="m 14.0625,44.0625 c -0.519373,0 -0.9375,0.418126 -0.9375,0.9375 v 5.625 c 0,0.519374 0.418127,0.9375 0.9375,0.9375 h 5.625 c 0.519374,0 0.9375,-0.418126 0.9375,-0.9375 V 45 c 0,-0.519374 -0.418126,-0.9375 -0.9375,-0.9375 z m 8.433838,0 C 21.976886,44.0625 21.5625,44.4808 21.5625,45 v 5.625 c 0,0.5192 0.414386,0.9375 0.933838,0.9375 H 28.125 c 0.51945,0 0.9375,-0.4183 0.9375,-0.9375 V 45 c 0,-0.5192 -0.41805,-0.9375 -0.9375,-0.9375 z m 8.4375,0 C 30.414386,44.0625 30,44.4808 30,45 v 5.625 c 0,0.5192 0.414386,0.9375 0.933838,0.9375 H 36.5625 c 0.519451,0 0.9375,-0.4183 0.9375,-0.9375 V 45 c 0,-0.5192 -0.418049,-0.9375 -0.9375,-0.9375 z m 8.4375,0 C 38.851886,44.0625 38.4375,44.4808 38.4375,45 v 5.625 c 0,0.5192 0.414386,0.9375 0.933838,0.9375 H 45 c 0.51945,0 0.9375,-0.4183 0.9375,-0.9375 V 45 c 0,-0.5192 -0.41805,-0.9375 -0.9375,-0.9375 z m 8.4375,0 C 47.289386,44.0625 46.875,44.4808 46.875,45 v 5.625 c 0,0.5192 0.414386,0.9375 0.933838,0.9375 H 53.4375 c 0.519451,0 0.9375,-0.4183 0.9375,-0.9375 V 45 c 0,-0.5192 -0.418049,-0.9375 -0.9375,-0.9375 z m 8.4375,0 C 55.726886,44.0625 55.3125,44.4808 55.3125,45 v 5.625 c 0,0.5192 0.414386,0.9375 0.933838,0.9375 H 61.875 c 0.519449,0 0.9375,-0.4183 0.9375,-0.9375 V 45 c 0,-0.5192 -0.418051,-0.9375 -0.9375,-0.9375 z m 8.4375,0 C 64.164386,44.0625 63.75,44.4808 63.75,45 v 5.625 c 0,0.5192 0.414386,0.9375 0.933838,0.9375 H 70.3125 c 0.519451,0 0.9375,-0.4183 0.9375,-0.9375 V 45 c 0,-0.5192 -0.418049,-0.9375 -0.9375,-0.9375 z m 8.4375,0 C 72.601886,44.0625 72.1875,44.4808 72.1875,45 v 5.625 c 0,0.5192 0.414386,0.9375 0.933838,0.9375 H 78.75 c 0.51945,0 0.9375,-0.4183 0.9375,-0.9375 V 45 c 0,-0.5192 -0.41805,-0.9375 -0.9375,-0.9375 z m 8.441162,0 c -0.519374,0 -0.9375,0.418126 -0.9375,0.9375 v 5.625 c 0,0.519374 0.418126,0.9375 0.9375,0.9375 h 5.625 c 0.519373,0 0.9375,-0.418126 0.9375,-0.9375 V 45 c 0,-0.519374 -0.418127,-0.9375 -0.9375,-0.9375 z m 16.875,0 C 97.918126,44.0625 97.5,44.480626 97.5,45 v 5.625 c 0,0.519374 0.418126,0.9375 0.9375,0.9375 h 7.5 c 0.51938,0 0.9375,-0.418126 0.9375,-0.9375 V 45 c 0,-0.519374 -0.41812,-0.9375 -0.9375,-0.9375 z M 90,44.080811 c -0.519374,0 -0.9375,0.418125 -0.9375,0.9375 v 5.625 c 0,0.519374 0.418126,0.9375 0.9375,0.9375 h 5.625 c 0.519374,0 0.9375,-0.418126 0.9375,-0.9375 v -5.625 c 0,-0.519375 -0.418126,-0.9375 -0.9375,-0.9375 z M 14.0625,52.5 c -0.519373,0 -0.9375,0.418126 -0.9375,0.9375 v 5.625 C 13.125,59.581874 13.543127,60 14.0625,60 H 24.375 c 0.519374,0 0.9375,-0.418126 0.9375,-0.9375 v -5.625 C 25.3125,52.918126 24.894374,52.5 24.375,52.5 Z m 13.125,0 c -0.519374,0 -0.9375,0.418126 -0.9375,0.9375 v 5.625 C 26.25,59.581874 26.668126,60 27.1875,60 h 5.625 c 0.519374,0 0.9375,-0.418126 0.9375,-0.9375 v -5.625 C 33.75,52.918126 33.331873,52.5 32.8125,52.5 Z m 8.433838,0 c -0.519451,0 -0.933838,0.4183 -0.933838,0.9375 v 5.625 c 0,0.519199 0.414387,0.9375 0.933838,0.9375 H 41.25 c 0.519451,0 0.9375,-0.418301 0.9375,-0.9375 v -5.625 C 42.1875,52.9183 41.769451,52.5 41.25,52.5 Z m 8.4375,0 C 43.539386,52.5 43.125,52.9183 43.125,53.4375 v 5.625 C 43.125,59.581699 43.539386,60 44.058838,60 H 49.6875 c 0.519451,0 0.9375,-0.418301 0.9375,-0.9375 v -5.625 C 50.625,52.9183 50.206951,52.5 49.6875,52.5 Z m 8.4375,0 c -0.519451,0 -0.933838,0.4183 -0.933838,0.9375 v 5.625 c 0,0.519199 0.414387,0.9375 0.933838,0.9375 H 58.125 c 0.519451,0 0.9375,-0.418301 0.9375,-0.9375 v -5.625 C 59.0625,52.9183 58.644451,52.5 58.125,52.5 Z m 8.4375,0 C 60.414386,52.5 60,52.9183 60,53.4375 v 5.625 C 60,59.581699 60.414386,60 60.933838,60 H 66.5625 C 67.081951,60 67.5,59.581699 67.5,59.0625 v -5.625 C 67.5,52.9183 67.081951,52.5 66.5625,52.5 Z m 8.4375,0 c -0.519451,0 -0.933838,0.4183 -0.933838,0.9375 v 5.625 c 0,0.519199 0.414387,0.9375 0.933838,0.9375 H 75 c 0.519451,0 0.9375,-0.418301 0.9375,-0.9375 v -5.625 C 75.9375,52.9183 75.519451,52.5 75,52.5 Z m 8.4375,0 C 77.289386,52.5 76.875,52.9183 76.875,53.4375 v 5.625 C 76.875,59.581699 77.289386,60 77.808838,60 H 83.4375 c 0.519451,0 0.9375,-0.418301 0.9375,-0.9375 v -5.625 C 84.375,52.9183 83.956951,52.5 83.4375,52.5 Z m 8.4375,0 c -0.519451,0 -0.933838,0.4183 -0.933838,0.9375 v 5.625 c 0,0.519199 0.414387,0.9375 0.933838,0.9375 H 91.875 c 0.519451,0 0.9375,-0.418301 0.9375,-0.9375 v -5.625 C 92.8125,52.9183 92.394451,52.5 91.875,52.5 Z m 8.441162,0 c -0.519375,0 -0.9375,0.418126 -0.9375,0.9375 v 5.625 C 93.75,59.581874 94.168125,60 94.6875,60 h 11.25 c 0.51938,0 0.9375,-0.418126 0.9375,-0.9375 v -5.625 c 0,-0.519374 -0.41812,-0.9375 -0.9375,-0.9375 z m -80.625,8.4375 c -0.519373,0 -0.9375,0.418126 -0.9375,0.9375 V 67.5 c 0,0.519374 0.418127,0.9375 0.9375,0.9375 h 15 C 29.581874,68.4375 30,68.019374 30,67.5 v -5.625 c 0,-0.519374 -0.418126,-0.9375 -0.9375,-0.9375 z m 17.8125,0 c -0.51945,0 -0.9375,0.4183 -0.9375,0.9375 V 67.5 c 0,0.5192 0.41805,0.9375 0.9375,0.9375 h 5.628662 c 0.519452,0 0.933838,-0.4183 0.933838,-0.9375 v -5.625 c 0,-0.5192 -0.414386,-0.9375 -0.933838,-0.9375 z m 8.4375,0 c -0.519451,0 -0.9375,0.4183 -0.9375,0.9375 V 67.5 c 0,0.5192 0.418049,0.9375 0.9375,0.9375 h 5.628662 c 0.519451,0 0.933838,-0.4183 0.933838,-0.9375 v -5.625 c 0,-0.5192 -0.414387,-0.9375 -0.933838,-0.9375 z m 8.4375,0 c -0.519449,0 -0.9375,0.4183 -0.9375,0.9375 V 67.5 c 0,0.5192 0.418051,0.9375 0.9375,0.9375 h 5.628662 c 0.519451,0 0.933838,-0.4183 0.933838,-0.9375 v -5.625 c 0,-0.5192 -0.414387,-0.9375 -0.933838,-0.9375 z m 8.4375,0 c -0.519451,0 -0.9375,0.4183 -0.9375,0.9375 V 67.5 c 0,0.5192 0.418049,0.9375 0.9375,0.9375 h 5.628662 C 63.335613,68.4375 63.75,68.0192 63.75,67.5 v -5.625 c 0,-0.5192 -0.414387,-0.9375 -0.933838,-0.9375 z m 8.4375,0 c -0.51945,0 -0.9375,0.4183 -0.9375,0.9375 V 67.5 c 0,0.5192 0.41805,0.9375 0.9375,0.9375 h 5.628662 c 0.519452,0 0.933838,-0.4183 0.933838,-0.9375 v -5.625 c 0,-0.5192 -0.414386,-0.9375 -0.933838,-0.9375 z m 8.4375,0 c -0.519451,0 -0.9375,0.4183 -0.9375,0.9375 V 67.5 c 0,0.5192 0.418049,0.9375 0.9375,0.9375 h 5.628662 c 0.519451,0 0.933838,-0.4183 0.933838,-0.9375 v -5.625 c 0,-0.5192 -0.414387,-0.9375 -0.933838,-0.9375 z m 8.4375,0 c -0.51945,0 -0.9375,0.4183 -0.9375,0.9375 V 67.5 c 0,0.5192 0.41805,0.9375 0.9375,0.9375 h 5.628662 c 0.519452,0 0.933838,-0.4183 0.933838,-0.9375 v -5.625 c 0,-0.5192 -0.414386,-0.9375 -0.933838,-0.9375 z m 8.4375,0 C 90.418126,60.9375 90,61.355626 90,61.875 V 67.5 c 0,0.519374 0.418126,0.9375 0.9375,0.9375 h 15 c 0.51938,0 0.9375,-0.418126 0.9375,-0.9375 v -5.625 c 0,-0.519374 -0.41812,-0.9375 -0.9375,-0.9375 z m -76.875,8.4375 c -0.519373,0 -0.9375,0.418126 -0.9375,0.9375 v 5.625 c 0,0.519374 0.418127,0.9375 0.9375,0.9375 h 5.625 c 0.519374,0 0.9375,-0.418126 0.9375,-0.9375 v -5.625 c 0,-0.519374 -0.418126,-0.9375 -0.9375,-0.9375 z m 8.433838,0 c -0.519452,0 -0.933838,0.418299 -0.933838,0.9375 v 5.625 c 0,0.519199 0.414386,0.9375 0.933838,0.9375 H 28.125 c 0.51945,0 0.9375,-0.418301 0.9375,-0.9375 v -5.625 c 0,-0.519201 -0.41805,-0.9375 -0.9375,-0.9375 z m 8.441162,0 C 30.418126,69.375 30,69.793126 30,70.3125 v 5.625 c 0,0.519374 0.418126,0.9375 0.9375,0.9375 h 58.125 C 89.581874,76.875 90,76.456874 90,75.9375 v -5.625 C 90,69.793126 89.581874,69.375 89.0625,69.375 Z m 60.933838,0 c -0.519452,0 -0.933838,0.418299 -0.933838,0.9375 v 5.625 c 0,0.519199 0.414386,0.9375 0.933838,0.9375 H 97.5 c 0.519459,0 0.9375,-0.418301 0.9375,-0.9375 v -5.625 c 0,-0.519201 -0.418041,-0.9375 -0.9375,-0.9375 z m 8.437502,0 c -0.519455,0 -0.93384,0.418299 -0.93384,0.9375 v 5.625 c 0,0.519199 0.414385,0.9375 0.93384,0.9375 h 5.62866 c 0.51946,0 0.9375,-0.418301 0.9375,-0.9375 v -5.625 c 0,-0.519201 -0.41804,-0.9375 -0.9375,-0.9375 z" />
</svg>
