<?xml version="1.0" encoding="UTF-8" standalone="no"?>
<svg
   version="1.1"
   id="svg4220"
   viewBox="0 0 64.000001 64.000001"
   height="64"
   width="64"
   sodipodi:docname="input-keyboard.svg"
   inkscape:version="1.2.2 (b0a8486541, 2022-12-01)"
   xmlns:inkscape="http://www.inkscape.org/namespaces/inkscape"
   xmlns:sodipodi="http://sodipodi.sourceforge.net/DTD/sodipodi-0.dtd"
   xmlns:xlink="http://www.w3.org/1999/xlink"
   xmlns="http://www.w3.org/2000/svg"
   xmlns:svg="http://www.w3.org/2000/svg"
   xmlns:rdf="http://www.w3.org/1999/02/22-rdf-syntax-ns#"
   xmlns:cc="http://creativecommons.org/ns#"
   xmlns:dc="http://purl.org/dc/elements/1.1/">
  <sodipodi:namedview
     id="namedview46"
     pagecolor="#ffffff"
     bordercolor="#666666"
     borderopacity="1.0"
     inkscape:pageshadow="2"
     inkscape:pageopacity="0.0"
     inkscape:pagecheckerboard="0"
     showgrid="false"
     inkscape:zoom="120.56171"
     inkscape:cx="50.799711"
     inkscape:cy="23.879887"
     inkscape:window-width="1326"
     inkscape:window-height="791"
     inkscape:window-x="346"
     inkscape:window-y="232"
     inkscape:window-maximized="0"
     inkscape:current-layer="svg4220"
     inkscape:showpageshadow="2"
     inkscape:deskcolor="#d1d1d1" />
  <defs
     id="defs4222">
    <linearGradient
       gradientTransform="translate(49.620739,-1)"
       gradientUnits="userSpaceOnUse"
       y2="42"
       x2="-19"
       y1="20"
       x1="-19"
       id="linearGradient5177"
       xlink:href="#linearGradient5171" />
    <linearGradient
       id="linearGradient5171">
      <stop
         id="stop5173"
         offset="0"
         style="stop-color:#f8f8f8;stop-opacity:1" />
      <stop
         id="stop5175"
         offset="1"
         style="stop-color:#efeff0;stop-opacity:1" />
    </linearGradient>
    <linearGradient
       y2="42.437775"
       x2="40.290417"
       y1="5.524776"
       x1="40.290417"
       gradientTransform="matrix(1.4864864,0,0,0.75675677,-3.6756786,13.337856)"
       gradientUnits="userSpaceOnUse"
       id="linearGradient4088"
       xlink:href="#linearGradient3462" />
    <linearGradient
       id="linearGradient3462">
      <stop
         offset="0"
         style="stop-color:#ffffff;stop-opacity:1"
         id="stop3464" />
      <stop
         offset="0.03457849"
         style="stop-color:#ffffff;stop-opacity:0.23529412"
         id="stop3466" />
      <stop
         offset="0.96375686"
         style="stop-color:#ffffff;stop-opacity:0.15686275"
         id="stop3468" />
      <stop
         offset="1"
         style="stop-color:#ffffff;stop-opacity:0.39215687"
         id="stop3470" />
    </linearGradient>
    <linearGradient
       gradientTransform="matrix(1.2666667,0,0,0.83333337,1.6,9.4166979)"
       gradientUnits="userSpaceOnUse"
       y2="61.171558"
       x2="24.725653"
       y1="7.8793106"
       x1="24.725653"
       id="linearGradient4534"
       xlink:href="#radialGradient4536" />
    <radialGradient
       gradientTransform="matrix(0,1.2316483,-1.625754,0,18.486966,-28.721977)"
       gradientUnits="userSpaceOnUse"
       id="radialGradient4536"
       r="20.396999"
       cy="3.99"
       cx="23.896">
      <stop
         offset="0"
         style="stop-color:#ffffff;stop-opacity:1"
         id="stop4538" />
      <stop
         offset="0.06562372"
         style="stop-color:#dddddd;stop-opacity:1"
         id="stop4540" />
      <stop
         offset="0.85064554"
         style="stop-color:#abacae;stop-opacity:1"
         id="stop4542" />
      <stop
         offset="1"
         style="stop-color:#89898b;stop-opacity:1"
         id="stop4544" />
    </radialGradient>
    <linearGradient
       x1="302.85715"
       y1="366.64789"
       x2="302.85715"
       y2="609.50507"
       id="linearGradient19619"
       xlink:href="#linearGradient5048"
       gradientUnits="userSpaceOnUse"
       gradientTransform="matrix(0.08449704,0,0,0.01235294,-6.5396456,38.470822)" />
    <linearGradient
       id="linearGradient5048">
      <stop
         id="stop5050"
         style="stop-color:#000000;stop-opacity:0"
         offset="0" />
      <stop
         id="stop5056"
         style="stop-color:#000000;stop-opacity:1"
         offset="0.5" />
      <stop
         id="stop5052"
         style="stop-color:#000000;stop-opacity:0"
         offset="1" />
    </linearGradient>
    <radialGradient
       cx="605.71429"
       cy="486.64789"
       r="117.14286"
       fx="605.71429"
       fy="486.64789"
       id="radialGradient19616"
       xlink:href="#linearGradient5060"
       gradientUnits="userSpaceOnUse"
       gradientTransform="matrix(-0.0289166,0,0,0.01235294,21.026894,38.470848)" />
    <linearGradient
       id="linearGradient5060">
      <stop
         id="stop5062"
         style="stop-color:#000000;stop-opacity:1"
         offset="0" />
      <stop
         id="stop5064"
         style="stop-color:#000000;stop-opacity:0"
         offset="1" />
    </linearGradient>
    <radialGradient
       cx="605.71429"
       cy="486.64789"
       r="117.14286"
       fx="605.71429"
       fy="486.64789"
       id="radialGradient19613"
       xlink:href="#linearGradient5060"
       gradientUnits="userSpaceOnUse"
       gradientTransform="matrix(0.02891661,0,0,0.01235294,26.973101,38.470848)" />
    <linearGradient
       gradientTransform="translate(54.620552,-1)"
       gradientUnits="userSpaceOnUse"
       y2="42"
       x2="-19"
       y1="20"
       x1="-19"
       id="linearGradient5177-3"
       xlink:href="#linearGradient5171" />
    <linearGradient
       xlink:href="#linearGradient5171"
       id="linearGradient4172"
       gradientUnits="userSpaceOnUse"
       gradientTransform="translate(59.620552,-1)"
       x1="-19"
       y1="20"
       x2="-19"
       y2="42" />
  </defs>
  <metadata
     id="metadata4225">
    <rdf:RDF>
      <cc:Work
         rdf:about="">
        <dc:format>image/svg+xml</dc:format>
        <dc:type
           rdf:resource="http://purl.org/dc/dcmitype/StillImage" />
      </cc:Work>
    </rdf:RDF>
  </metadata>
  <g
     transform="matrix(1.25,0,0,1,2,2.0000086)"
     id="g3257"
     style="opacity:0.4">
    <rect
       width="40.799999"
       height="2.9999998"
       x="3.5999999"
       y="43"
       id="rect2879"
       style="display:inline;overflow:visible;visibility:visible;fill:url(#linearGradient19619);fill-opacity:1;fill-rule:nonzero;stroke:none;stroke-width:1;marker:none" />
    <path
       d="m 3.6,43.00013 c 0,0 0,2.999835 0,2.999835 C 2.1108662,46.005612 0,45.327854 0,44.499854 0,43.671856 1.6617608,43.000131 3.6,43.00013 Z"
       id="path2881"
       style="display:inline;overflow:visible;visibility:visible;fill:url(#radialGradient19616);fill-opacity:1;fill-rule:nonzero;stroke:none;stroke-width:1;marker:none" />
    <path
       d="m 44.4,43.00013 c 0,0 0,2.999835 0,2.999835 1.489133,0.0056 3.6,-0.672111 3.6,-1.500111 0,-0.827998 -1.661761,-1.499723 -3.6,-1.499724 z"
       id="path2883"
       style="display:inline;overflow:visible;visibility:visible;fill:url(#radialGradient19613);fill-opacity:1;fill-rule:nonzero;stroke:none;stroke-width:1;marker:none" />
  </g>
  <rect
     width="57"
     height="30"
     rx="2"
     ry="2"
     x="3.4999995"
     y="16.49999"
     id="rect5505-21-3-8-5-2"
     style="color:#000000;display:inline;overflow:visible;visibility:visible;opacity:1;fill:url(#linearGradient4534);fill-opacity:1;fill-rule:nonzero;stroke:none;stroke-width:1;marker:none;enable-background:accumulate" />
  <rect
     width="55"
     height="28"
     rx="1"
     ry="1"
     x="4.5"
     y="17.499983"
     id="rect6741-5-0-2-3"
     style="opacity:0.6;fill:none;stroke:url(#linearGradient4088);stroke-width:0.999999;stroke-linecap:round;stroke-linejoin:round;stroke-miterlimit:4;stroke-dasharray:none;stroke-dashoffset:0;stroke-opacity:1" />
  <rect
     width="57.000004"
     height="30"
     rx="2"
     ry="2"
     x="3.5"
     y="16.49999"
     id="rect5505-21-3-8-9-1-1"
     style="color:#000000;clip-rule:nonzero;display:inline;overflow:visible;visibility:visible;opacity:0.3;isolation:auto;mix-blend-mode:normal;color-interpolation:sRGB;color-interpolation-filters:linearRGB;solid-color:#000000;solid-opacity:1;fill:none;fill-opacity:1;fill-rule:nonzero;stroke:#000000;stroke-width:1;stroke-linecap:butt;stroke-linejoin:miter;stroke-miterlimit:4;stroke-dasharray:none;stroke-dashoffset:0;stroke-opacity:1;marker:none;color-rendering:auto;image-rendering:auto;shape-rendering:auto;text-rendering:auto;enable-background:accumulate" />
  <path
     style="color:#000000;clip-rule:nonzero;display:inline;overflow:visible;visibility:visible;opacity:0.07;isolation:auto;mix-blend-mode:normal;color-interpolation:sRGB;color-interpolation-filters:linearRGB;solid-color:#000000;solid-opacity:1;fill:#000000;fill-opacity:1;fill-rule:nonzero;stroke:none;stroke-width:1;stroke-linecap:butt;stroke-linejoin:miter;stroke-miterlimit:4;stroke-dasharray:none;stroke-dashoffset:0;stroke-opacity:1;marker:none;color-rendering:auto;image-rendering:auto;shape-rendering:auto;text-rendering:auto;enable-background:accumulate"
     id="path5222"
     d="M 7.5001874,22 C 6.6902184,22 6,22.689852 6,23.499821 V 26.5 c 0,0.385392 0.1785442,0.731978 0.4279218,1 C 6.1785442,27.768022 6,28.114608 6,28.5 v 3 c 0,0.385392 0.1785442,0.731978 0.4279218,1 C 6.1785442,32.768022 6,33.114608 6,33.5 v 3 c 0,0.385392 0.1785442,0.731978 0.4279218,1 C 6.1785442,37.768022 6,38.114608 6,38.5 v 3 c 0,0.809969 0.6902184,1.500179 1.5001874,1.500179 h 3.9999996 c 0.385392,0 0.731978,-0.178536 1,-0.427913 0.268023,0.249377 0.614609,0.427913 1,0.427913 h 4 c 0.385392,0 0.731978,-0.178536 1,-0.427913 0.268022,0.249377 0.614608,0.427913 1,0.427913 H 44.5 c 0.385393,0 0.731978,-0.178614 1,-0.427991 0.268022,0.249377 0.614608,0.427991 1,0.427991 h 4 c 0.457606,0 0.640454,-0.08642 1,-0.427991 0.305614,0.305614 0.496636,0.427991 1,0.427991 h 4.000187 C 57.310157,43.000179 58,42.309969 58,41.5 v -3 c 0,-0.385392 -0.178169,-0.731978 -0.427547,-1 C 57.821831,37.231978 58,36.885392 58,36.5 v -3 c 0,-0.385392 -0.178169,-0.731978 -0.427547,-1 C 57.821831,32.231978 58,31.885392 58,31.5 v -3 c 0,-0.385392 -0.178169,-0.731978 -0.427547,-1 C 57.821831,27.231978 58,26.885392 58,26.5 V 23.499821 C 58,22.689852 57.310156,22 56.500187,22 H 52.5 c -0.36224,0 -0.84042,0.19289 -1,0.428009 C 51.354548,22.191169 51.053852,22.028402 50.5,22 h -3 c -0.449432,0 -0.883148,0.248236 -1,0.428009 C 46.347193,22.22127 45.931455,22.017977 45.5,22 h -2.999813 c -0.385392,0 -0.731978,0.178632 -1,0.428009 C 41.232165,22.178632 40.88558,22 40.500187,22 h -3 c -0.385392,0 -0.731978,0.178178 -1,0.427555 C 36.232165,22.178178 35.88558,22 35.500187,22 h -3 c -0.385392,0 -0.731978,0.178178 -1,0.427555 C 31.232165,22.178178 30.88558,22 30.500187,22 h -3 c -0.385392,0 -0.731978,0.178178 -1,0.427555 C 26.232165,22.178178 25.885579,22 25.500187,22 h -3 c -0.385392,0 -0.731978,0.178178 -1,0.427555 C 21.232165,22.178178 20.885579,22 20.500187,22 h -3 c -0.385392,0 -0.731978,0.178178 -1,0.427555 C 16.232165,22.178178 15.885579,22 15.500187,22 h -3 c -0.385391,0 -0.731977,0.178178 -1,0.427555 C 11.232165,22.178178 10.885579,22 10.500187,22 Z"
     sodipodi:nodetypes="scccsscsscsssscssccccsccsssscsscsscccccccsccscsscsscsscsscsscsscss" />
  <path
     style="color:#000000;clip-rule:nonzero;display:inline;overflow:visible;visibility:visible;opacity:0.15;isolation:auto;mix-blend-mode:normal;color-interpolation:sRGB;color-interpolation-filters:linearRGB;solid-color:#000000;solid-opacity:1;fill:#000000;fill-opacity:1;fill-rule:nonzero;stroke:none;stroke-width:1;stroke-linecap:butt;stroke-linejoin:miter;stroke-miterlimit:4;stroke-dasharray:none;stroke-dashoffset:0;stroke-opacity:1;marker:none;color-rendering:auto;image-rendering:auto;shape-rendering:auto;text-rendering:auto;enable-background:accumulate"
     d="m 7.5001874,23 c -0.277,0 -0.5,0.223 -0.5,0.5 v 3 c 0,0.277 0.223,0.5 0.5,0.5 h 2.9999996 c 0.277,0 0.5,-0.223 0.5,-0.5 v -3 c 0,-0.277 -0.223,-0.5 -0.5,-0.5 z m 4.9999996,0 c -0.276999,0 -0.5,0.223 -0.5,0.5 v 3 c 0,0.277 0.223001,0.5 0.5,0.5 h 3 c 0.277,0 0.5,-0.223 0.5,-0.5 v -3 c 0,-0.277 -0.223,-0.5 -0.5,-0.5 z m 5,0 c -0.277,0 -0.5,0.223 -0.5,0.5 v 3 c 0,0.277 0.223,0.5 0.5,0.5 h 3 c 0.277,0 0.5,-0.223 0.5,-0.5 v -3 c 0,-0.277 -0.223,-0.5 -0.5,-0.5 z m 5,0 c -0.277,0 -0.5,0.223 -0.5,0.5 v 3 c 0,0.277 0.223,0.5 0.5,0.5 h 3 c 0.277,0 0.5,-0.223 0.5,-0.5 v -3 c 0,-0.277 -0.223,-0.5 -0.5,-0.5 z m 5,0 c -0.277,0 -0.5,0.223 -0.5,0.5 v 3 c 0,0.277 0.223,0.5 0.5,0.5 h 3 c 0.277,0 0.5,-0.223 0.5,-0.5 v -3 c 0,-0.277 -0.223,-0.5 -0.5,-0.5 z m 5,0 c -0.277,0 -0.5,0.223 -0.5,0.5 v 3 c 0,0.277 0.223,0.5 0.5,0.5 h 3 c 0.277,0 0.5,-0.223 0.5,-0.5 v -3 c 0,-0.277 -0.223,-0.5 -0.5,-0.5 z m 5,0 c -0.277,0 -0.5,0.223 -0.5,0.5 v 3 c 0,0.277 0.223,0.5 0.5,0.5 h 3 c 0.277,0 0.5,-0.223 0.5,-0.5 v -3 c 0,-0.277 -0.223,-0.5 -0.5,-0.5 z m 5,0 c -0.277,0 -0.5,0.223 -0.5,0.5 v 3 c 0,0.277 0.223,0.5 0.5,0.5 H 45.5 c 0.277,0 0.5,-0.223 0.5,-0.5 v -3 C 46,23.223 45.777,23 45.5,23 Z M 7.5001874,28 c -0.277,0 -0.5,0.223 -0.5,0.5 v 3 c 0,0.277 0.223,0.5 0.5,0.5 H 12.5 c 0.277,0 0.5,-0.223 0.5,-0.5 v -3 C 13,28.223 12.777,28 12.5,28 Z M 14.5,28 C 14.223,28 14,28.223 14,28.5 v 3 c 0,0.277 0.223,0.5 0.5,0.5 h 3 c 0.277,0 0.5,-0.223 0.5,-0.5 v -3 C 18,28.223 17.777,28 17.5,28 Z m 5,0 C 19.223,28 19,28.223 19,28.5 v 3 c 0,0.277 0.223,0.5 0.5,0.5 h 3 c 0.277,0 0.5,-0.223 0.5,-0.5 v -3 C 23,28.223 22.777,28 22.5,28 Z m 5,0 C 24.223,28 24,28.223 24,28.5 v 3 c 0,0.277 0.223,0.5 0.5,0.5 h 3 c 0.277,0 0.5,-0.223 0.5,-0.5 v -3 C 28,28.223 27.777,28 27.5,28 Z m 5,0 C 29.223,28 29,28.223 29,28.5 v 3 c 0,0.277 0.223,0.5 0.5,0.5 h 3 c 0.277,0 0.5,-0.223 0.5,-0.5 v -3 C 33,28.223 32.777,28 32.5,28 Z m 5,0 C 34.223,28 34,28.223 34,28.5 v 3 c 0,0.277 0.223,0.5 0.5,0.5 h 3 c 0.277,0 0.5,-0.223 0.5,-0.5 v -3 C 38,28.223 37.777,28 37.5,28 Z m 5,0 C 39.223,28 39,28.223 39,28.5 v 3 c 0,0.277 0.223,0.5 0.5,0.5 h 3 c 0.277,0 0.5,-0.223 0.5,-0.5 v -3 C 43,28.223 42.777,28 42.5,28 Z m 5,0 C 44.223,28 44,28.223 44,28.5 v 3 c 0,0.277 0.223,0.5 0.5,0.5 h 3 c 0.277,0 0.5,-0.223 0.5,-0.5 v -3 C 48,28.223 47.777,28 47.5,28 Z M 7.5001874,33 c -0.277,0 -0.5,0.223 -0.5,0.5 v 3 c 0,0.277 0.223,0.5 0.5,0.5 H 15.5 c 0.277,0 0.5,-0.223 0.5,-0.5 v -3 C 16,33.223 15.777,33 15.5,33 Z M 17.5,33 C 17.223,33 17,33.223 17,33.5 v 3 c 0,0.277 0.223,0.5 0.5,0.5 h 3 c 0.277,0 0.5,-0.223 0.5,-0.5 v -3 C 21,33.223 20.777,33 20.5,33 Z m 5,0 C 22.223,33 22,33.223 22,33.5 v 3 c 0,0.277 0.223,0.5 0.5,0.5 h 3 c 0.277,0 0.5,-0.223 0.5,-0.5 v -3 C 26,33.223 25.777,33 25.5,33 Z m 5,0 C 27.223,33 27,33.223 27,33.5 v 3 c 0,0.277 0.223,0.5 0.5,0.5 h 3 c 0.277,0 0.5,-0.223 0.5,-0.5 v -3 C 31,33.223 30.777,33 30.5,33 Z m 5,0 C 32.223,33 32,33.223 32,33.5 v 3 c 0,0.277 0.223,0.5 0.5,0.5 h 3 c 0.277,0 0.5,-0.223 0.5,-0.5 v -3 C 36,33.223 35.777,33 35.5,33 Z m 5,0 C 37.223,33 37,33.223 37,33.5 v 3 c 0,0.277 0.223,0.5 0.5,0.5 h 3 c 0.277,0 0.5,-0.223 0.5,-0.5 v -3 C 41,33.223 40.777,33 40.5,33 Z m 5,0 C 42.223,33 42,33.223 42,33.5 v 3 c 0,0.277 0.223,0.5 0.5,0.5 h 3 c 0.277,0 0.5,-0.223 0.5,-0.5 v -3 C 46,33.223 45.777,33 45.5,33 Z M 7.5001874,38 c -0.277,0 -0.5,0.223 -0.5,0.5 v 3 c 0,0.277 0.223,0.5 0.5,0.5 h 3.9999996 c 0.277,0 0.5,-0.223 0.5,-0.5 v -3 c 0,-0.277 -0.223,-0.5 -0.5,-0.5 z m 5.9999996,0 c -0.277,0 -0.5,0.223 -0.5,0.5 v 3 c 0,0.277 0.223,0.5 0.5,0.5 h 4 c 0.277,0 0.5,-0.223 0.5,-0.5 v -3 c 0,-0.277 -0.223,-0.5 -0.5,-0.5 z m 6,0 c -0.277,0 -0.5,0.223 -0.5,0.5 v 3 c 0,0.277 0.223,0.5 0.5,0.5 H 44.5 c 0.277,0 0.5,-0.223 0.5,-0.5 v -3 C 45,38.223 44.777,38 44.5,38 Z"
     id="rect4562"
     sodipodi:nodetypes="ssssssssssssssssssssssssssssssssssssssssssssssssssssssssssssssssssssssssssssssssssssssssssssssssssssssssssssssssssssssssssssssssssssssssssssssssssssssssssssssssssssssssssssssssssssssssssssssssssssssssssssssssssssssssssssssssssssssssss" />
  <path
     style="color:#000000;clip-rule:nonzero;display:inline;overflow:visible;visibility:visible;opacity:1;isolation:auto;mix-blend-mode:normal;color-interpolation:sRGB;color-interpolation-filters:linearRGB;solid-color:#000000;solid-opacity:1;fill:url(#linearGradient5177);fill-opacity:1;fill-rule:nonzero;stroke:none;stroke-width:1;stroke-linecap:butt;stroke-linejoin:miter;stroke-miterlimit:4;stroke-dasharray:none;stroke-dashoffset:0;stroke-opacity:1;marker:none;color-rendering:auto;image-rendering:auto;shape-rendering:auto;text-rendering:auto;enable-background:accumulate"
     d="m 7.5001874,22 c -0.277,0 -0.5,0.223 -0.5,0.5 v 3 c 0,0.277 0.223,0.5 0.5,0.5 h 2.9999996 c 0.277,0 0.5,-0.223 0.5,-0.5 v -3 c 0,-0.277 -0.223,-0.5 -0.5,-0.5 z m 4.9999996,0 c -0.276999,0 -0.5,0.223 -0.5,0.5 v 3 c 0,0.277 0.223001,0.5 0.5,0.5 h 3 c 0.277,0 0.5,-0.223 0.5,-0.5 v -3 c 0,-0.277 -0.223,-0.5 -0.5,-0.5 z m 5,0 c -0.277,0 -0.5,0.223 -0.5,0.5 v 3 c 0,0.277 0.223,0.5 0.5,0.5 h 3 c 0.277,0 0.5,-0.223 0.5,-0.5 v -3 c 0,-0.277 -0.223,-0.5 -0.5,-0.5 z m 5,0 c -0.277,0 -0.5,0.223 -0.5,0.5 v 3 c 0,0.277 0.223,0.5 0.5,0.5 h 3 c 0.277,0 0.5,-0.223 0.5,-0.5 v -3 c 0,-0.277 -0.223,-0.5 -0.5,-0.5 z m 5,0 c -0.277,0 -0.5,0.223 -0.5,0.5 v 3 c 0,0.277 0.223,0.5 0.5,0.5 h 3 c 0.277,0 0.5,-0.223 0.5,-0.5 v -3 c 0,-0.277 -0.223,-0.5 -0.5,-0.5 z m 5,0 c -0.277,0 -0.5,0.223 -0.5,0.5 v 3 c 0,0.277 0.223,0.5 0.5,0.5 h 3 c 0.277,0 0.5,-0.223 0.5,-0.5 v -3 c 0,-0.277 -0.223,-0.5 -0.5,-0.5 z m 5,0 c -0.277,0 -0.5,0.223 -0.5,0.5 v 3 c 0,0.277 0.223,0.5 0.5,0.5 h 3 c 0.277,0 0.5,-0.223 0.5,-0.5 v -3 c 0,-0.277 -0.223,-0.5 -0.5,-0.5 z M 7.5001874,27 c -0.277,0 -0.5,0.223 -0.5,0.5 v 3 c 0,0.277 0.223,0.5 0.5,0.5 h 4.9999066 c 0.276999,0 0.5,-0.223 0.5,-0.5 v -3 c 0,-0.277 -0.223001,-0.5 -0.5,-0.5 z m 6.9999056,0 c -0.277,0 -0.5,0.223 -0.5,0.5 v 3 c 0,0.277 0.223,0.5 0.5,0.5 h 3 c 0.277,0 0.5,-0.223 0.5,-0.5 v -3 c 0,-0.277 -0.223,-0.5 -0.5,-0.5 z m 5,0 c -0.277,0 -0.5,0.223 -0.5,0.5 v 3 c 0,0.277 0.223,0.5 0.5,0.5 h 3 c 0.277,0 0.5,-0.223 0.5,-0.5 v -3 c 0,-0.277 -0.223,-0.5 -0.5,-0.5 z m 5,0 c -0.277,0 -0.5,0.223 -0.5,0.5 v 3 c 0,0.277 0.223,0.5 0.5,0.5 h 3 c 0.277,0 0.5,-0.223 0.5,-0.5 v -3 c 0,-0.277 -0.223,-0.5 -0.5,-0.5 z m 5,0 c -0.277,0 -0.5,0.223 -0.5,0.5 v 3 c 0,0.277 0.223,0.5 0.5,0.5 h 3 c 0.277,0 0.5,-0.223 0.5,-0.5 v -3 c 0,-0.277 -0.223,-0.5 -0.5,-0.5 z m 5,0 c -0.277,0 -0.5,0.223 -0.5,0.5 v 3 c 0,0.277 0.223,0.5 0.5,0.5 h 3 c 0.277,0 0.5,-0.223 0.5,-0.5 v -3 c 0,-0.277 -0.223,-0.5 -0.5,-0.5 z m 5,0 c -0.277,0 -0.5,0.223 -0.5,0.5 v 3 c 0,0.277 0.223,0.5 0.5,0.5 h 3 c 0.277,0 0.5,-0.223 0.5,-0.5 v -3 c 0,-0.277 -0.223,-0.5 -0.5,-0.5 z M 7.5001874,32 c -0.277,0 -0.5,0.223 -0.5,0.5 v 3 c 0,0.277 0.223,0.5 0.5,0.5 h 7.9997666 c 0.276999,0 0.5,-0.223 0.5,-0.5 v -3 c 0,-0.277 -0.223001,-0.5 -0.5,-0.5 z m 9.9998586,0 c -0.277,0 -0.5,0.223 -0.5,0.5 v 3 c 0,0.277 0.223,0.5 0.5,0.5 h 3 c 0.277,0 0.5,-0.223 0.5,-0.5 v -3 c 0,-0.277 -0.223,-0.5 -0.5,-0.5 z m 5,0 c -0.277,0 -0.5,0.223 -0.5,0.5 v 3 c 0,0.277 0.223,0.5 0.5,0.5 h 3 c 0.277,0 0.5,-0.223 0.5,-0.5 v -3 c 0,-0.277 -0.223,-0.5 -0.5,-0.5 z m 5,0 c -0.277,0 -0.5,0.223 -0.5,0.5 v 3 c 0,0.277 0.223,0.5 0.5,0.5 h 3 c 0.277,0 0.5,-0.223 0.5,-0.5 v -3 c 0,-0.277 -0.223,-0.5 -0.5,-0.5 z m 5,0 c -0.277,0 -0.5,0.223 -0.5,0.5 v 3 c 0,0.277 0.223,0.5 0.5,0.5 h 3 c 0.277,0 0.5,-0.223 0.5,-0.5 v -3 c 0,-0.277 -0.223,-0.5 -0.5,-0.5 z m 5,0 c -0.277,0 -0.5,0.223 -0.5,0.5 v 3 c 0,0.277 0.223,0.5 0.5,0.5 h 3 c 0.277,0 0.5,-0.223 0.5,-0.5 v -3 c 0,-0.277 -0.223,-0.5 -0.5,-0.5 z m 5,0 c -0.277,0 -0.5,0.223 -0.5,0.5 v 3 c 0,0.277 0.223,0.5 0.5,0.5 h 3 c 0.277,0 0.5,-0.223 0.5,-0.5 v -3 c 0,-0.277 -0.223,-0.5 -0.5,-0.5 z M 7.5001874,37 c -0.277,0 -0.5,0.223 -0.5,0.5 v 3 c 0,0.277 0.223,0.5 0.5,0.5 h 3.9999996 c 0.277,0 0.5,-0.223 0.5,-0.5 v -3 c 0,-0.277 -0.223,-0.5 -0.5,-0.5 z m 5.9999996,0 c -0.277,0 -0.5,0.223 -0.5,0.5 v 3 c 0,0.277 0.223,0.5 0.5,0.5 h 4 c 0.277,0 0.5,-0.223 0.5,-0.5 v -3 c 0,-0.277 -0.223,-0.5 -0.5,-0.5 z m 6,0 c -0.277,0 -0.5,0.223 -0.5,0.5 v 3 c 0,0.277 0.223,0.5 0.5,0.5 H 44.5 c 0.277,0 0.5,-0.223 0.5,-0.5 v -3 C 45,37.223 44.777,37 44.5,37 Z"
     id="rect4562-8"
     sodipodi:nodetypes="ssssssssssssssssssssssssssssssssssssssssssssssssssssssssssssssssssssssssssssssssssssssssssssssssssssssssssssssssssssssssssssssssssssssssssssssssssssssssssssssssssssssssssssssssssssssssssssssssssssssssssssssssssssssss" />
  <path
     id="path4176"
     d="m 47.500187,23 c -0.277,0 -0.5,0.223 -0.5,0.5 v 3 c 0,0.277 0.223,0.5 0.5,0.5 H 50.5 c 0.277,0 0.5,-0.223 0.5,-0.5 v -3 C 51,23.223 50.777,23 50.5,23 Z M 52.5,23 C 52.223,23 52,23.223 52,23.5 v 3 c 0,0.277 0.223,0.5 0.5,0.5 h 3.9999 c 0.27701,0 0.5,-0.223 0.5,-0.5 v -3 c 0,-0.277 -0.22299,-0.5 -0.5,-0.5 z m -3,5 C 49.223,28 49,28.223 49,28.5 v 3 c 0,0.277 0.223,0.5 0.5,0.5 h 7.00019 c 0.277,0 0.5,-0.223 0.5,-0.5 v -3 c 0,-0.277 -0.223,-0.5 -0.5,-0.5 z m -2.25,5 c -0.277,0 -0.5,0.223 -0.5,0.5 v 3 c 0,0.277 0.223,0.5 0.5,0.5 h 9.25019 c 0.277,0 0.5,-0.223 0.5,-0.5 v -3 c 0,-0.277 -0.223,-0.5 -0.5,-0.5 z m -0.749955,5 c -0.277,0 -0.5,0.223 -0.5,0.5 v 3 c 0,0.277 0.223,0.5 0.5,0.5 h 3.99991 c 0.277,0 0.5,-0.223 0.5,-0.5 v -3 c 0,-0.277 -0.223,-0.5 -0.5,-0.5 z M 52.5,38 C 52.223,38 52,38.223 52,38.5 v 3 c 0,0.277 0.223,0.5 0.5,0.5 h 4 c 0.277,0 0.5,-0.223 0.5,-0.5 v -3 C 57,38.223 56.777,38 56.5,38 Z"
     style="color:#000000;clip-rule:nonzero;display:inline;overflow:visible;visibility:visible;opacity:0.15;isolation:auto;mix-blend-mode:normal;color-interpolation:sRGB;color-interpolation-filters:linearRGB;solid-color:#000000;solid-opacity:1;fill:#000000;fill-opacity:1;fill-rule:nonzero;stroke:none;stroke-width:1;stroke-linecap:butt;stroke-linejoin:miter;stroke-miterlimit:4;stroke-dasharray:none;stroke-dashoffset:0;stroke-opacity:1;marker:none;color-rendering:auto;image-rendering:auto;shape-rendering:auto;text-rendering:auto;enable-background:accumulate"
     sodipodi:nodetypes="ssssssssssssssssssssssssssssssssssssssssssssssssssssss" />
  <path
     style="color:#000000;clip-rule:nonzero;display:inline;overflow:visible;visibility:visible;opacity:1;isolation:auto;mix-blend-mode:normal;color-interpolation:sRGB;color-interpolation-filters:linearRGB;solid-color:#000000;solid-opacity:1;fill:url(#linearGradient5177-3);fill-opacity:1;fill-rule:nonzero;stroke:none;stroke-width:1;stroke-linecap:butt;stroke-linejoin:miter;stroke-miterlimit:4;stroke-dasharray:none;stroke-dashoffset:0;stroke-opacity:1;marker:none;color-rendering:auto;image-rendering:auto;shape-rendering:auto;text-rendering:auto;enable-background:accumulate"
     d="M 42.5,22 C 42.223,22 42,22.223 42,22.5 v 3 c 0,0.277 0.223,0.5 0.5,0.5 h 3 c 0.277,0 0.5,-0.223 0.5,-0.5 v -3 C 46,22.223 45.777,22 45.5,22 Z m 5,0 C 47.223,22 47,22.223 47,22.5 v 3 c 0,0.277 0.223,0.5 0.5,0.5 h 3 c 0.277,0 0.5,-0.223 0.5,-0.5 v -3 C 51,22.223 50.777,22 50.5,22 Z m -3.000093,5 c -0.277001,0 -0.5,0.223 -0.5,0.5 v 3 c 0,0.277 0.222999,0.5 0.5,0.5 h 3 c 0.277,0 0.5,-0.223 0.5,-0.5 v -3 c 0,-0.277 -0.223,-0.5 -0.5,-0.5 z M 46.5,37 C 46.223,37 46,37.223 46,37.5 v 3 c 0,0.277 0.223,0.5 0.5,0.5 h 4 c 0.277,0 0.5,-0.223 0.5,-0.5 v -3 C 51,37.223 50.777,37 50.5,37 Z"
     id="rect4562-8-8"
     sodipodi:nodetypes="ssssssssssssssssssssssssssssssssssss" />
  <path
     id="path4170"
     d="M 52.5,22 C 52.223,22 52,22.223 52,22.5 v 3 c 0,0.277 0.223,0.5 0.5,0.5 h 4 c 0.277,0 0.5,-0.223 0.5,-0.5 v -3 C 57,22.223 56.777,22 56.5,22 Z m -3,5 C 49.223,27 49,27.223 49,27.5 v 3 c 0,0.277 0.223,0.5 0.5,0.5 h 7 c 0.277,0 0.5,-0.223 0.5,-0.5 v -3 C 57,27.223 56.777,27 56.5,27 Z m -2.25,5 c -0.277,0 -0.5,0.223 -0.5,0.5 v 3 c 0,0.277 0.223,0.5 0.5,0.5 h 9.25 c 0.277,0 0.5,-0.223 0.5,-0.5 v -3 C 57,32.223 56.777,32 56.5,32 Z m 5.25,5 C 52.223,37 52,37.223 52,37.5 v 3 c 0,0.277 0.223,0.5 0.5,0.5 h 4 c 0.277,0 0.5,-0.223 0.5,-0.5 v -3 C 57,37.223 56.777,37 56.5,37 Z"
     style="color:#000000;clip-rule:nonzero;display:inline;overflow:visible;visibility:visible;opacity:1;isolation:auto;mix-blend-mode:normal;color-interpolation:sRGB;color-interpolation-filters:linearRGB;solid-color:#000000;solid-opacity:1;fill:url(#linearGradient4172);fill-opacity:1;fill-rule:nonzero;stroke:none;stroke-width:1;stroke-linecap:butt;stroke-linejoin:miter;stroke-miterlimit:4;stroke-dasharray:none;stroke-dashoffset:0;stroke-opacity:1;marker:none;color-rendering:auto;image-rendering:auto;shape-rendering:auto;text-rendering:auto;enable-background:accumulate"
     sodipodi:nodetypes="ssssssssssssssssssssssssssssssssssss" />
</svg>
