<?xml version="1.0" encoding="UTF-8" standalone="no"?>
<svg
   version="1.0"
   width="64"
   height="64"
   id="svg2453"
   sodipodi:docname="video-x-generic.svg"
   inkscape:version="1.1.1 (3bf5ae0d25, 2021-09-20)"
   xmlns:inkscape="http://www.inkscape.org/namespaces/inkscape"
   xmlns:sodipodi="http://sodipodi.sourceforge.net/DTD/sodipodi-0.dtd"
   xmlns:xlink="http://www.w3.org/1999/xlink"
   xmlns="http://www.w3.org/2000/svg"
   xmlns:svg="http://www.w3.org/2000/svg"
   xmlns:rdf="http://www.w3.org/1999/02/22-rdf-syntax-ns#"
   xmlns:cc="http://creativecommons.org/ns#"
   xmlns:dc="http://purl.org/dc/elements/1.1/">
  <sodipodi:namedview
     id="namedview42"
     pagecolor="#ffffff"
     bordercolor="#666666"
     borderopacity="1.0"
     inkscape:pageshadow="2"
     inkscape:pageopacity="0.0"
     inkscape:pagecheckerboard="0"
     showgrid="false"
     inkscape:zoom="8.5957668"
     inkscape:cx="46.534534"
     inkscape:cy="26.233844"
     inkscape:window-width="1920"
     inkscape:window-height="1030"
     inkscape:window-x="0"
     inkscape:window-y="0"
     inkscape:window-maximized="1"
     inkscape:current-layer="svg2453" />
  <metadata
     id="metadata35">
    <rdf:RDF>
      <cc:Work
         rdf:about="">
        <dc:format>image/svg+xml</dc:format>
        <dc:type
           rdf:resource="http://purl.org/dc/dcmitype/StillImage" />
      </cc:Work>
    </rdf:RDF>
  </metadata>
  <defs
     id="defs2455">
    <linearGradient
       id="linearGradient3462">
      <stop
         id="stop3464"
         style="stop-color:#ffffff;stop-opacity:1"
         offset="0" />
      <stop
         id="stop3466"
         style="stop-color:#ffffff;stop-opacity:0.23529412"
         offset="0.03457849" />
      <stop
         id="stop3468"
         style="stop-color:#ffffff;stop-opacity:0.15686275"
         offset="0.96375686" />
      <stop
         id="stop3470"
         style="stop-color:#ffffff;stop-opacity:0.39215687"
         offset="1" />
    </linearGradient>
    <linearGradient
       id="linearGradient5060-2">
      <stop
         id="stop5062-3"
         style="stop-color:#000000;stop-opacity:1"
         offset="0" />
      <stop
         id="stop5064-1"
         style="stop-color:#000000;stop-opacity:0"
         offset="1" />
    </linearGradient>
    <linearGradient
       id="linearGradient5048-8">
      <stop
         id="stop5050-4"
         style="stop-color:#000000;stop-opacity:0"
         offset="0" />
      <stop
         id="stop5056-5"
         style="stop-color:#000000;stop-opacity:1"
         offset="0.5" />
      <stop
         id="stop5052-1"
         style="stop-color:#000000;stop-opacity:0"
         offset="1" />
    </linearGradient>
    <radialGradient
       cx="605.71429"
       cy="486.64789"
       r="117.14286"
       fx="605.71429"
       fy="486.64789"
       id="radialGradient3175"
       xlink:href="#linearGradient5060-2"
       gradientUnits="userSpaceOnUse"
       gradientTransform="matrix(-0.03212956,0,0,0.02058823,23.863217,48.451416)" />
    <linearGradient
       x1="302.85715"
       y1="366.64789"
       x2="302.85715"
       y2="609.50507"
       id="linearGradient3178"
       xlink:href="#linearGradient5048-8"
       gradientUnits="userSpaceOnUse"
       gradientTransform="matrix(0.11390532,0,0,0.02058823,-9.1686406,48.451416)" />
    <linearGradient
       id="linearGradient2867-449-88-871-390-598-476-591-434-148-57-177-8-3-3-6-4-8-8-8-5-7">
      <stop
         offset="0"
         style="stop-color:#505050;stop-opacity:1"
         id="stop3750-1-0-7-6-6-1-3-9-3-9" />
      <stop
         offset="0.26238"
         style="stop-color:#2b2b2b;stop-opacity:1"
         id="stop3752-3-7-4-0-32-8-923-0-7-0" />
      <stop
         offset="0.704952"
         style="stop-color:#0a0a0a;stop-opacity:1"
         id="stop3754-1-8-5-2-7-6-7-1-9-1" />
      <stop
         offset="1"
         style="stop-color:#000000;stop-opacity:1"
         id="stop3756-1-6-2-6-6-1-96-6-0-1" />
    </linearGradient>
    <linearGradient
       xlink:href="#linearGradient3462"
       id="linearGradient3133"
       gradientUnits="userSpaceOnUse"
       gradientTransform="matrix(1.5405405,0,0,1.2162162,-4.9729751,5.8820652)"
       x1="40.290417"
       y1="5.4143372"
       x2="40.290417"
       y2="42.437775" />
    <radialGradient
       xlink:href="#linearGradient2867-449-88-871-390-598-476-591-434-148-57-177-8-3-3-6-4-8-8-8-5-7"
       id="radialGradient3136"
       gradientUnits="userSpaceOnUse"
       gradientTransform="matrix(0,11.015167,-16.975815,0,202.28727,-88.992668)"
       cx="7.1183534"
       cy="9.9571075"
       fx="7.1183534"
       fy="9.9571075"
       r="12.671875" />
  </defs>
  <rect
     width="55"
     height="5"
     x="4.5"
     y="56"
     id="rect2879-0"
     style="opacity:0.3;fill:url(#linearGradient3178);fill-opacity:1;fill-rule:nonzero;stroke:none;stroke-width:1;marker:none;visibility:visible;display:inline;overflow:visible" />
  <path
     d="m 4.5,56.000216 c 0,0 0,4.9997 0,4.9997 -1.654593,0.01 -4,-1.1202 -4,-2.5002 0,-1.38 1.8464008,-2.4995 4,-2.4995 z"
     id="path2881-4"
     style="opacity:0.3;fill:url(#radialGradient3175);fill-opacity:1;fill-rule:nonzero;stroke:none;stroke-width:1;marker:none;visibility:visible;display:inline;overflow:visible" />
  <rect
     width="59"
     height="47"
     rx="2"
     ry="2"
     x="2.5"
     y="11.499998"
     id="rect5505-21-3-8-5-2"
     style="opacity:0.9;color:#000000;fill:url(#radialGradient3136);fill-opacity:1;fill-rule:nonzero;stroke:none;stroke-width:0.99999994;marker:none;visibility:visible;display:inline;overflow:visible;enable-background:accumulate" />
  <rect
     width="57"
     height="45"
     rx="1"
     ry="1"
     x="3.5"
     y="12.571251"
     id="rect6741-5-0-2-3"
     style="opacity:0.29999999999999999;fill:none;stroke:url(#linearGradient3133);stroke-width:1;stroke-linecap:round;stroke-linejoin:round;stroke-miterlimit:4;stroke-opacity:1;stroke-dasharray:none;stroke-dashoffset:0" />
  <rect
     width="59"
     height="47"
     rx="2"
     ry="2"
     x="2.5"
     y="11.5"
     id="rect5505-21-3-8-9-1-1"
     style="opacity:0.7;color:#000000;fill:none;stroke:#000000;stroke-width:1;stroke-linecap:round;stroke-linejoin:round;stroke-miterlimit:4;stroke-opacity:1;stroke-dasharray:none;stroke-dashoffset:0;marker:none;visibility:visible;display:inline;overflow:visible;enable-background:accumulate" />
  <path
     d="M 24.75,27 C 24.3345,27 24,27.3345 24,27.75 v 17.5 c 0,0.4155 0.3345,0.75 0.75,0.75 h 14.5 C 39.6655,46 40,45.6655 40,45.25 V 27.75 C 40,27.3345 39.6655,27 39.25,27 Z m 2.75,1 h 9 c 0.277,0 0.5,0.5 0.5,0.5 v 7 c 0,0 -0.223,0.5 -0.5,0.5 h -9 C 27.223,36 27,35.777 27,35.5 v -7 C 27,28.223 27.223,28 27.5,28 Z m 0,9 h 9 c 0.277,0 0.5,0.223 0.5,0.5 v 7 c 0,0.277 -0.223,0.5 -0.5,0.5 h -9 C 27.223,45 27,44.777 27,44.5 v -7 C 27,37.223 27.223,37 27.5,37 Z"
     id="path3399"
     style="color:#000000;display:inline;overflow:visible;visibility:visible;opacity:0.15;fill:#000000;fill-opacity:1;fill-rule:nonzero;stroke:#000000;stroke-width:2;stroke-miterlimit:4;stroke-dasharray:none;stroke-opacity:1;marker:none;enable-background:accumulate"
     sodipodi:nodetypes="sssssssssssssssssssssssssss" />
  <path
     id="path9352"
     style="color:#000000;display:inline;overflow:visible;visibility:visible;opacity:0.5;fill:#000000;fill-opacity:1;fill-rule:nonzero;stroke:none;stroke-width:1;marker:none;enable-background:accumulate"
     d="M 24.75,27 C 24.3345,27 24,27.3345 24,27.75 v 17.5 c 0,0.4155 0.3345,0.75 0.75,0.75 h 14.5 C 39.6655,46 40,45.6655 40,45.25 V 27.75 C 40,27.3345 39.6655,27 39.25,27 Z M 25,28 h 1 v 1 h -1 z m 2.5,0 h 9 c 0.277,0 0.5,0.223 0.5,0.5 v 7 c 0,0.277 -0.223,0.5 -0.5,0.5 h -9 C 27.223,36 27,35.777 27,35.5 v -7 C 27,28.223 27.223,28 27.5,28 Z M 38,28 h 1 v 1 h -1 z m -13,2 h 1 v 1 h -1 z m 13,0 h 1 v 1 h -1 z m -13,2 h 1 v 1 h -1 z m 13,0 h 1 v 1 h -1 z m -13,2 h 1 v 1 h -1 z m 13,0 h 1 v 1 h -1 z m -13,2 h 1 v 1 h -1 z m 13,0 h 1 v 1 h -1 z m -10.5,1 h 9 c 0.277,0 0.5,0.223 0.5,0.5 v 7 c 0,0.277 -0.223,0.5 -0.5,0.5 h -9 C 27.223,45 27,44.777 27,44.5 v -7 C 27,37.223 27.223,37 27.5,37 Z M 25,38 h 1 v 1 h -1 z m 13,0 h 1 v 1 h -1 z m -13,2 h 1 v 1 h -1 z m 13,0 h 1 v 1 h -1 z m -13,2 h 1 v 1 h -1 z m 13,0 h 1 v 1 h -1 z m -13,2 h 1 v 1 h -1 z m 13,0 h 1 v 1 h -1 z" />
  <path
     id="rect3032-8"
     style="color:#000000;display:inline;overflow:visible;visibility:visible;opacity:1;fill:#ffffff;fill-opacity:1;fill-rule:nonzero;stroke:none;stroke-width:1;marker:none;enable-background:accumulate"
     d="M 24.75 26 C 24.3345 26 24 26.3345 24 26.75 L 24 44.25 C 24 44.6655 24.3345 45 24.75 45 L 39.25 45 C 39.6655 45 40 44.6655 40 44.25 L 40 26.75 C 40 26.3345 39.6655 26 39.25 26 L 24.75 26 z M 25 27 L 26 27 L 26 28 L 25 28 L 25 27 z M 27.5 27 L 36.5 27 C 36.777 27 37 27.223 37 27.5 L 37 34.5 C 37 34.777 36.777 35 36.5 35 L 27.5 35 C 27.223 35 27 34.777 27 34.5 L 27 27.5 C 27 27.223 27.223 27 27.5 27 z M 38 27 L 39 27 L 39 28 L 38 28 L 38 27 z M 25 29 L 26 29 L 26 30 L 25 30 L 25 29 z M 38 29 L 39 29 L 39 30 L 38 30 L 38 29 z M 25 31 L 26 31 L 26 32 L 25 32 L 25 31 z M 38 31 L 39 31 L 39 32 L 38 32 L 38 31 z M 25 33 L 26 33 L 26 34 L 25 34 L 25 33 z M 38 33 L 39 33 L 39 34 L 38 34 L 38 33 z M 25 35 L 26 35 L 26 36 L 25 36 L 25 35 z M 38 35 L 39 35 L 39 36 L 38 36 L 38 35 z M 27.5 36 L 36.5 36 C 36.777 36 37 36.223 37 36.5 L 37 43.5 C 37 43.777 36.777 44 36.5 44 L 27.5 44 C 27.223 44 27 43.777 27 43.5 L 27 36.5 C 27 36.223 27.223 36 27.5 36 z M 25 37 L 26 37 L 26 38 L 25 38 L 25 37 z M 38 37 L 39 37 L 39 38 L 38 38 L 38 37 z M 25 39 L 26 39 L 26 40 L 25 40 L 25 39 z M 38 39 L 39 39 L 39 40 L 38 40 L 38 39 z M 25 41 L 26 41 L 26 42 L 25 42 L 25 41 z M 38 41 L 39 41 L 39 42 L 38 42 L 38 41 z M 25 43 L 26 43 L 26 44 L 25 44 L 25 43 z M 38 43 L 39 43 L 39 44 L 38 44 L 38 43 z " />
</svg>
