<?xml version="1.0" encoding="UTF-8" standalone="no"?>
<svg
   version="1.0"
   width="32"
   height="32"
   id="svg2526"
   inkscape:version="1.1.1 (3bf5ae0d25, 2021-09-20)"
   sodipodi:docname="video-x-generic.svg"
   xmlns:inkscape="http://www.inkscape.org/namespaces/inkscape"
   xmlns:sodipodi="http://sodipodi.sourceforge.net/DTD/sodipodi-0.dtd"
   xmlns:xlink="http://www.w3.org/1999/xlink"
   xmlns="http://www.w3.org/2000/svg"
   xmlns:svg="http://www.w3.org/2000/svg"
   xmlns:rdf="http://www.w3.org/1999/02/22-rdf-syntax-ns#"
   xmlns:cc="http://creativecommons.org/ns#"
   xmlns:dc="http://purl.org/dc/elements/1.1/">
  <sodipodi:namedview
     pagecolor="#ffffff"
     bordercolor="#666666"
     borderopacity="1"
     objecttolerance="10"
     gridtolerance="10"
     guidetolerance="10"
     inkscape:pageopacity="0"
     inkscape:pageshadow="2"
     inkscape:window-width="1396"
     inkscape:window-height="955"
     id="namedview121"
     showgrid="false"
     inkscape:zoom="45.254834"
     inkscape:cx="15.291184"
     inkscape:cy="16.418136"
     inkscape:window-x="522"
     inkscape:window-y="73"
     inkscape:window-maximized="0"
     inkscape:current-layer="svg2526"
     inkscape:pagecheckerboard="0" />
  <metadata
     id="metadata58">
    <rdf:RDF>
      <cc:Work
         rdf:about="">
        <dc:format>image/svg+xml</dc:format>
        <dc:type
           rdf:resource="http://purl.org/dc/dcmitype/StillImage" />
      </cc:Work>
    </rdf:RDF>
  </metadata>
  <defs
     id="defs2528">
    <linearGradient
       id="linearGradient5060">
      <stop
         id="stop5062"
         style="stop-color:#000000;stop-opacity:1"
         offset="0" />
      <stop
         id="stop5064"
         style="stop-color:#000000;stop-opacity:0"
         offset="1" />
    </linearGradient>
    <linearGradient
       id="linearGradient5048">
      <stop
         id="stop5050"
         style="stop-color:#000000;stop-opacity:0"
         offset="0" />
      <stop
         id="stop5056"
         style="stop-color:#000000;stop-opacity:1"
         offset="0.5" />
      <stop
         id="stop5052"
         style="stop-color:#000000;stop-opacity:0"
         offset="1" />
    </linearGradient>
    <linearGradient
       x1="302.85715"
       y1="366.64789"
       x2="302.85715"
       y2="609.50507"
       id="linearGradient3188"
       xlink:href="#linearGradient5048"
       gradientUnits="userSpaceOnUse"
       gradientTransform="matrix(0.08449704,0,0,0.01235294,-6.5396456,38.470822)" />
    <radialGradient
       cx="605.71429"
       cy="486.64789"
       r="117.14286"
       fx="605.71429"
       fy="486.64789"
       id="radialGradient3190"
       xlink:href="#linearGradient5060"
       gradientUnits="userSpaceOnUse"
       gradientTransform="matrix(-0.0289166,0,0,0.01235294,21.026894,38.470848)" />
    <radialGradient
       cx="605.71429"
       cy="486.64789"
       r="117.14286"
       fx="605.71429"
       fy="486.64789"
       id="radialGradient3192"
       xlink:href="#linearGradient5060"
       gradientUnits="userSpaceOnUse"
       gradientTransform="matrix(0.02891661,0,0,0.01235294,26.973101,38.470848)" />
    <linearGradient
       id="linearGradient2867-449-88-871-390-598-476-591-434-148-57-177-8-3-3-6-4-8-8-8-5-7">
      <stop
         id="stop3750-1-0-7-6-6-1-3-9-3-9"
         style="stop-color:#505050;stop-opacity:1"
         offset="0" />
      <stop
         id="stop3752-3-7-4-0-32-8-923-0-7-0"
         style="stop-color:#2b2b2b;stop-opacity:1"
         offset="0.26238" />
      <stop
         id="stop3754-1-8-5-2-7-6-7-1-9-1"
         style="stop-color:#0a0a0a;stop-opacity:1"
         offset="0.704952" />
      <stop
         id="stop3756-1-6-2-6-6-1-96-6-0-1"
         style="stop-color:#000000;stop-opacity:1"
         offset="1" />
    </linearGradient>
    <linearGradient
       id="linearGradient3462">
      <stop
         id="stop3464"
         style="stop-color:#ffffff;stop-opacity:1"
         offset="0" />
      <stop
         id="stop3466"
         style="stop-color:#ffffff;stop-opacity:0.23529412"
         offset="0.03457849" />
      <stop
         id="stop3468"
         style="stop-color:#ffffff;stop-opacity:0.15686275"
         offset="0.96375686" />
      <stop
         id="stop3470"
         style="stop-color:#ffffff;stop-opacity:0.39215687"
         offset="1" />
    </linearGradient>
    <linearGradient
       x1="40.290417"
       y1="5.4143372"
       x2="40.290417"
       y2="42.437775"
       id="linearGradient3217"
       xlink:href="#linearGradient3462"
       gradientUnits="userSpaceOnUse"
       gradientTransform="matrix(0.78378379,0,0,0.64864867,-2.8108146,0.93243362)" />
    <radialGradient
       cx="7.1183534"
       cy="9.9571075"
       r="12.671875"
       fx="7.1183534"
       fy="9.9571075"
       id="radialGradient3220"
       xlink:href="#linearGradient2867-449-88-871-390-598-476-591-434-148-57-177-8-3-3-6-4-8-8-8-5-7"
       gradientUnits="userSpaceOnUse"
       gradientTransform="matrix(0,6.0934966,-8.919496,0,105.47297,-52.09169)" />
    <linearGradient
       id="linearGradient3680-6-6-6-3-7-1-8-8-6-4">
      <stop
         id="stop3682-4-6-1-3-7-7-4-0-3-2"
         style="stop-color:#dcdcdc;stop-opacity:1"
         offset="0" />
      <stop
         id="stop3684-8-5-8-0-2-6-8-4-3-2"
         style="stop-color:#ffffff;stop-opacity:1"
         offset="1" />
    </linearGradient>
    <linearGradient
       x1="20"
       y1="26.000008"
       x2="20"
       y2="13.000008"
       id="linearGradient3354"
       xlink:href="#linearGradient3680-6-6-6-3-7-1-8-8-6-4"
       gradientUnits="userSpaceOnUse"
       gradientTransform="matrix(0.94777285,0,0,0.9730468,16.89986,15.579784)" />
  </defs>
  <g
     transform="matrix(0.6666592,0,0,1.3333333,1.792e-4,-30.333332)"
     id="g3257"
     style="opacity:0.4">
    <rect
       width="40.799999"
       height="2.9999998"
       x="3.5999999"
       y="43"
       id="rect2879"
       style="fill:url(#linearGradient3188);fill-opacity:1;fill-rule:nonzero;stroke:none;stroke-width:1;marker:none;visibility:visible;display:inline;overflow:visible" />
    <path
       d="m 3.6,43.00013 c 0,0 0,2.999835 0,2.999835 C 2.1108662,46.005612 0,45.327854 0,44.499854 0,43.671856 1.6617608,43.000131 3.6,43.00013 z"
       id="path2881"
       style="fill:url(#radialGradient3190);fill-opacity:1;fill-rule:nonzero;stroke:none;stroke-width:1;marker:none;visibility:visible;display:inline;overflow:visible" />
    <path
       d="m 44.4,43.00013 c 0,0 0,2.999835 0,2.999835 1.489133,0.0056 3.6,-0.672111 3.6,-1.500111 0,-0.827998 -1.661761,-1.499723 -3.6,-1.499724 z"
       id="path2883"
       style="fill:url(#radialGradient3192);fill-opacity:1;fill-rule:nonzero;stroke:none;stroke-width:1;marker:none;visibility:visible;display:inline;overflow:visible" />
  </g>
  <rect
     width="31"
     height="26"
     rx="1.0508474"
     ry="1.106383"
     x="0.49999687"
     y="3.4999986"
     id="rect5505-21-3-8-5-2"
     style="color:#000000;display:inline;overflow:visible;visibility:visible;opacity:0.9;fill:url(#radialGradient3220);fill-opacity:1;fill-rule:nonzero;stroke:none;stroke-width:0.99999994;marker:none;enable-background:accumulate" />
  <rect
     width="29"
     height="24"
     x="1.5"
     y="4.5"
     id="rect6741-5-0-2-3"
     style="opacity:0.3;fill:none;stroke:url(#linearGradient3217);stroke-width:0.99999988;stroke-linecap:round;stroke-linejoin:round;stroke-miterlimit:4;stroke-dasharray:none;stroke-dashoffset:0;stroke-opacity:1" />
  <rect
     width="31"
     height="26"
     rx="1.0508474"
     ry="1.106383"
     x="0.49999687"
     y="3.4999971"
     id="rect5505-21-3-8-9-1-1"
     style="color:#000000;display:inline;overflow:visible;visibility:visible;opacity:0.7;fill:none;stroke:#000000;stroke-width:0.99999994;stroke-linecap:round;stroke-linejoin:round;stroke-miterlimit:4;stroke-dasharray:none;stroke-dashoffset:0;stroke-opacity:1;marker:none;enable-background:accumulate" />
  <g
     transform="translate(50.486698,23.228284)"
     id="g3349">
    <path
       d="m 18.531253,19.99975 c -0.868974,0 -1.53125,0.750922 -1.53125,1.5625 v 11.8755 c 0,0.811578 0.662276,1.5625 1.53125,1.5625 h 10.9375 c 0.868974,0 1.53125,-0.750922 1.53125,-1.5625 v -11.8755 c 0,-0.811578 -0.662276,-1.5625 -1.53125,-1.5625 z M 22.000003,23 h 4 v 3 h -4 z m 0,6 h 4 v 3 h -4 z"
       id="path3452"
       style="color:#000000;display:inline;overflow:visible;visibility:visible;opacity:0.15;fill:#000000;fill-opacity:1;fill-rule:nonzero;stroke:none;stroke-width:1;marker:none;enable-background:accumulate"
       inkscape:connector-curvature="0"
       transform="translate(-58.486701,-33.228284)"
       sodipodi:nodetypes="ssssssssscccccccccc" />
    <path
       id="path3293"
       style="color:#000000;display:inline;overflow:visible;visibility:visible;opacity:0.3;fill:#000000;fill-opacity:1;fill-rule:nonzero;stroke:none;stroke-width:1;marker:none;enable-background:accumulate"
       d="m -39.982792,-12.228063 c -0.283575,0.01541 -0.503906,0.267322 -0.503906,0.5625 V 0.20943693 c 0,0.3047 0.234464,0.5625 0.53125,0.5625 h 10.9375 c 0.296786,0 0.53125,-0.2578 0.53125,-0.5625 V -11.665563 c 0,-0.3047 -0.234464,-0.5625 -0.53125,-0.5625 h -10.9375 c -0.0093,0 -0.0182,-4.97e-4 -0.02734,0 z m 0.496094,1 h 1 v 1 h -1 z m 2.474609,0 c 0.0085,-4.3e-4 0.01674,0 0.02539,0 h 5 c 0.277,0 0.5,0.223 0.5,0.5 v 3.9999999 c 0,0.277 -0.223,0.5 -0.5,0.5 h -5 c -0.277,0 -0.5,-0.223 -0.5,-0.5 v -3.9999999 c 0,-0.268344 0.209695,-0.486658 0.474609,-0.5 z m 6.525391,0 h 1 v 1 h -1 z m -9,1.9999999 h 1 v 1 h -1 z m 9,0 h 1 v 1 h -1 z m -9,2 h 1 v 1 h -1 z m 9,0 h 1 v 1 h -1 z m -9,2 h 1 v 1 h -1 z m 2.474609,0 c 0.0085,-4.3e-4 0.01674,0 0.02539,0 h 5 c 0.277,0 0.5,0.223 0.5,0.5 v 4.00000003 c 0,0.277 -0.223,0.5 -0.5,0.5 h -5 c -0.277,0 -0.5,-0.223 -0.5,-0.5 V -4.7280631 c 0,-0.268344 0.209695,-0.486658 0.474609,-0.5 z m 6.525391,0 h 1 v 1 h -1 z m -9,2 h 1 v 1 h -1 z m 9,0 h 1 v 1 h -1 z m -9,2 h 1 v 1.00000003 h -1 z m 9,0 h 1 v 1.00000003 h -1 z" />
    <path
       id="rect3032-8-9"
       style="color:#000000;display:inline;overflow:visible;visibility:visible;fill:url(#linearGradient3354);fill-opacity:1;fill-rule:nonzero;stroke:none;stroke-width:1;marker:none;enable-background:accumulate"
       d="M 10.503906 10 C 10.220331 10.015409 10 10.267322 10 10.5625 L 10 22.4375 C 10 22.7422 10.234464 23 10.53125 23 L 21.46875 23 C 21.765536 23 22 22.7422 22 22.4375 L 22 10.5625 C 22 10.2578 21.765536 10 21.46875 10 L 10.53125 10 C 10.521975 10 10.513054 9.9995029 10.503906 10 z M 11 11 L 12 11 L 12 12 L 11 12 L 11 11 z M 13.474609 11 C 13.483155 10.99957 13.491344 11 13.5 11 L 18.5 11 C 18.777 11 19 11.223 19 11.5 L 19 15.5 C 19 15.777 18.777 16 18.5 16 L 13.5 16 C 13.223 16 13 15.777 13 15.5 L 13 11.5 C 13 11.231656 13.209695 11.013342 13.474609 11 z M 20 11 L 21 11 L 21 12 L 20 12 L 20 11 z M 11 13 L 12 13 L 12 14 L 11 14 L 11 13 z M 20 13 L 21 13 L 21 14 L 20 14 L 20 13 z M 11 15 L 12 15 L 12 16 L 11 16 L 11 15 z M 20 15 L 21 15 L 21 16 L 20 16 L 20 15 z M 11 17 L 12 17 L 12 18 L 11 18 L 11 17 z M 13.474609 17 C 13.483155 16.99957 13.491344 17 13.5 17 L 18.5 17 C 18.777 17 19 17.223 19 17.5 L 19 21.5 C 19 21.777 18.777 22 18.5 22 L 13.5 22 C 13.223 22 13 21.777 13 21.5 L 13 17.5 C 13 17.231656 13.209695 17.013342 13.474609 17 z M 20 17 L 21 17 L 21 18 L 20 18 L 20 17 z M 11 19 L 12 19 L 12 20 L 11 20 L 11 19 z M 20 19 L 21 19 L 21 20 L 20 20 L 20 19 z M 11 21 L 12 21 L 12 22 L 11 22 L 11 21 z M 20 21 L 21 21 L 21 22 L 20 22 L 20 21 z "
       transform="translate(-50.486698,-23.228284)" />
  </g>
</svg>
