<?xml version="1.0" encoding="UTF-8" standalone="no"?>
<svg
   height="16"
   version="1.1"
   width="16"
   enable-background="new"
   id="svg2"
   sodipodi:docname="format-text-underline.svg"
   inkscape:version="1.2.2 (b0a8486541, 2022-12-01)"
   xmlns:inkscape="http://www.inkscape.org/namespaces/inkscape"
   xmlns:sodipodi="http://sodipodi.sourceforge.net/DTD/sodipodi-0.dtd"
   xmlns:xlink="http://www.w3.org/1999/xlink"
   xmlns="http://www.w3.org/2000/svg"
   xmlns:svg="http://www.w3.org/2000/svg"
   xmlns:rdf="http://www.w3.org/1999/02/22-rdf-syntax-ns#"
   xmlns:cc="http://creativecommons.org/ns#"
   xmlns:dc="http://purl.org/dc/elements/1.1/">
  <sodipodi:namedview
     id="namedview6644"
     pagecolor="#ffffff"
     bordercolor="#000000"
     borderopacity="0.25"
     inkscape:showpageshadow="2"
     inkscape:pageopacity="0.0"
     inkscape:pagecheckerboard="0"
     inkscape:deskcolor="#d1d1d1"
     showgrid="false"
     inkscape:zoom="22.627418"
     inkscape:cx="10.00998"
     inkscape:cy="7.711883"
     inkscape:window-width="1255"
     inkscape:window-height="880"
     inkscape:window-x="1026"
     inkscape:window-y="91"
     inkscape:window-maximized="0"
     inkscape:current-layer="svg2" />
  <metadata
     id="metadata90">
    <rdf:RDF>
      <cc:Work
         rdf:about="">
        <dc:format>image/svg+xml</dc:format>
        <dc:type
           rdf:resource="http://purl.org/dc/dcmitype/StillImage" />
      </cc:Work>
    </rdf:RDF>
  </metadata>
  <defs
     id="defs7386">
    <linearGradient
       inkscape:collect="always"
       xlink:href="#linearGradient10795"
       id="linearGradient10797"
       x1="7.7475443"
       y1="-0.056138899"
       x2="7.7475443"
       y2="12.87629"
       gradientUnits="userSpaceOnUse"
       gradientTransform="translate(-1.591961)" />
    <linearGradient
       inkscape:collect="always"
       id="linearGradient10795">
      <stop
         style="stop-color:#64baff;stop-opacity:1"
         offset="0"
         id="stop10791" />
      <stop
         style="stop-color:#3689e6;stop-opacity:1"
         offset="1"
         id="stop10793" />
    </linearGradient>
  </defs>
  <rect
     style="fill:#ffc27d;stroke:#a62100;stroke-width:0.999998;stroke-dasharray:none;stroke-opacity:0.5;paint-order:fill markers stroke;stop-color:#000000;font-variation-settings:normal;opacity:1;vector-effect:none;fill-opacity:1;stroke-linecap:butt;stroke-linejoin:miter;stroke-miterlimit:4;stroke-dashoffset:0;-inkscape-stroke:none;stop-opacity:1"
     id="rect10575"
     width="15.000002"
     height="2.0000019"
     x="0.49999905"
     y="13.499998"
     rx="1"
     ry="1" />
  <path
     d="m 10.5,1.5 h 3 v 6.4180685 c 0,0.8935285 -0.227618,1.6852362 -0.682851,2.3751235 -0.455235,0.685731 -1.095269,1.226005 -1.9201,1.620819 C 10.072219,12.304671 9.1054086,12.5 7.9966195,12.5 6.8923374,12.5 5.927781,12.304671 5.1029498,11.914011 4.2781192,11.519197 3.6380864,10.978923 3.1828525,10.293192 2.7276175,9.6033047 2.5,8.811597 2.5,7.9180685 V 1.5 h 3 V 7 C 5.5,8.89719 6.8214886,9.5 7.9999999,9.5 9.1785112,9.5 10.5,8.8958359 10.5,7 Z"
     id="path2442"
     style="font-weight:500;font-size:17.5831px;font-family:'Inter V';-inkscape-font-specification:'Inter V Medium';font-variation-settings:normal;opacity:1;vector-effect:none;fill:url(#linearGradient10797);fill-opacity:1;stroke:none;stroke-width:0.999996;stroke-linecap:butt;stroke-linejoin:miter;stroke-miterlimit:4;stroke-dasharray:none;stroke-dashoffset:0;stroke-opacity:0.5;-inkscape-stroke:none;paint-order:fill markers stroke;stop-color:#000000;stop-opacity:1"
     sodipodi:nodetypes="ccsccsccscccacc" />
  <path
     id="path21340"
     style="color:#000000;-inkscape-font-specification:'Inter V Medium';fill:#ffffff;fill-opacity:0.2;stroke-linejoin:round;-inkscape-stroke:none;paint-order:fill markers stroke;font-variation-settings:normal;opacity:1;vector-effect:none;stroke-width:1;stroke-linecap:butt;stroke-miterlimit:4;stroke-dasharray:none;stroke-dashoffset:0;stroke-opacity:1;stop-color:#000000;stop-opacity:1"
     d="m 3,2 v 5.9179688 c 0,0.8086135 0.1990292,1.492549 0.5996094,2.0996092 0.4024596,0.606236 0.9620978,1.08379 1.7167968,1.445313 h 0.00195 C 6.0648516,11.816116 6.9515073,12 7.9960938,12 c 1.0493318,0 1.9393693,-0.184033 2.6855472,-0.537109 0.755457,-0.361608 1.31602,-0.838673 1.71875,-1.445313 C 12.800969,9.4105173 13,8.7265821 13,7.9179688 V 2 H 11 V 7 C 11,8.0640905 10.601877,8.8670556 10.007812,9.3496094 9.4137474,9.8321632 8.674696,10 8,10 7.3254955,10 6.5863508,9.8320329 5.9921875,9.3496094 5.3980242,8.8671859 5,8.0646846 5,7 V 2 Z m 1,5 c 0,1.2968676 0.5361615,2.4534304 1.3632812,3.125 0.3432911,0.278731 0.715472,0.436083 1.0878907,0.572266 C 6.2378017,10.63457 5.9341529,10.647458 5.75,10.560547 l -0.00195,-0.002 C 5.1349765,10.264677 4.7325089,9.9124951 4.4355469,9.4667969 4.1442746,9.0253873 4,8.556756 4,7.9179688 Z m 8,0 v 0.9179688 c 0,0.6387866 -0.144275,1.1074172 -0.435547,1.5488281 -0.296963,0.4456984 -0.699431,0.7978321 -1.3125,1.0917971 l -0.002,0.002 c -0.182756,0.08625 -0.486966,0.07425 -0.6992188,0.136719 C 9.922701,10.560914 10.294033,10.403361 10.636719,10.125 11.463542,9.4533781 12,8.2964394 12,7 Z"
     sodipodi:nodetypes="cscccsccsccssssscccsccccsccsccccsc" />
  <rect
     style="font-variation-settings:normal;opacity:1;fill:#ffffff;fill-opacity:0.3;stroke:none;stroke-width:1;stroke-linecap:butt;stroke-linejoin:round;stroke-miterlimit:4;stroke-dasharray:none;stroke-dashoffset:0;stroke-opacity:0.5;paint-order:fill markers stroke;stop-color:#000000;stop-opacity:1"
     id="rect2851"
     width="2"
     height="1"
     x="3"
     y="2" />
  <rect
     style="font-variation-settings:normal;opacity:1;fill:#ffffff;fill-opacity:0.3;stroke:none;stroke-width:1;stroke-linecap:butt;stroke-linejoin:round;stroke-miterlimit:4;stroke-dasharray:none;stroke-dashoffset:0;stroke-opacity:0.5;paint-order:fill markers stroke;stop-color:#000000;stop-opacity:1"
     id="rect3061"
     width="2"
     height="1"
     x="11"
     y="2" />
  <path
     d="m 10.5,1.5 h 3 v 6.4180685 c 0,0.8935285 -0.227618,1.6852362 -0.682851,2.3751235 -0.455235,0.685731 -1.095269,1.226005 -1.9201,1.620819 C 10.072219,12.304671 9.1054086,12.5 7.9966195,12.5 6.8923374,12.5 5.927781,12.304671 5.1029498,11.914011 4.2781192,11.519197 3.6380864,10.978923 3.1828525,10.293192 2.7276175,9.6033047 2.5,8.811597 2.5,7.9180685 V 1.5 h 3 V 7 C 5.5,8.89719 6.8214886,9.5 7.9999999,9.5 9.1785112,9.5 10.5,8.8958359 10.5,7 Z"
     id="path2775"
     style="font-weight:500;font-size:17.5831px;font-family:'Inter V';-inkscape-font-specification:'Inter V Medium';font-variation-settings:normal;opacity:1;fill:none;fill-opacity:1;stroke:#002e99;stroke-width:1;stroke-linecap:butt;stroke-linejoin:round;stroke-miterlimit:4;stroke-dasharray:none;stroke-dashoffset:0;stroke-opacity:0.5;paint-order:fill markers stroke;stop-color:#000000;stop-opacity:1"
     sodipodi:nodetypes="ccsccsccscccacc" />
</svg>
