<?xml version="1.0" encoding="UTF-8" standalone="no"?>
<svg
   height="16"
   version="1.1"
   width="16"
   enable-background="new"
   id="svg2"
   sodipodi:docname="format-text-bold.svg"
   inkscape:version="1.2.2 (b0a8486541, 2022-12-01)"
   xmlns:inkscape="http://www.inkscape.org/namespaces/inkscape"
   xmlns:sodipodi="http://sodipodi.sourceforge.net/DTD/sodipodi-0.dtd"
   xmlns:xlink="http://www.w3.org/1999/xlink"
   xmlns="http://www.w3.org/2000/svg"
   xmlns:svg="http://www.w3.org/2000/svg"
   xmlns:rdf="http://www.w3.org/1999/02/22-rdf-syntax-ns#"
   xmlns:cc="http://creativecommons.org/ns#"
   xmlns:dc="http://purl.org/dc/elements/1.1/">
  <sodipodi:namedview
     id="namedview6644"
     pagecolor="#ffffff"
     bordercolor="#000000"
     borderopacity="0.25"
     inkscape:showpageshadow="2"
     inkscape:pageopacity="0.0"
     inkscape:pagecheckerboard="0"
     inkscape:deskcolor="#d1d1d1"
     showgrid="false"
     inkscape:zoom="32"
     inkscape:cx="10.953125"
     inkscape:cy="8.546875"
     inkscape:window-width="1427"
     inkscape:window-height="920"
     inkscape:window-x="815"
     inkscape:window-y="107"
     inkscape:window-maximized="0"
     inkscape:current-layer="svg2" />
  <metadata
     id="metadata90">
    <rdf:RDF>
      <cc:Work
         rdf:about="">
        <dc:format>image/svg+xml</dc:format>
        <dc:type
           rdf:resource="http://purl.org/dc/dcmitype/StillImage" />
      </cc:Work>
    </rdf:RDF>
  </metadata>
  <defs
     id="defs7386">
    <linearGradient
       inkscape:collect="always"
       id="linearGradient13807">
      <stop
         style="stop-color:#ffffff;stop-opacity:1;"
         offset="0"
         id="stop13803" />
      <stop
         style="stop-color:#ffffff;stop-opacity:0.49803922;"
         offset="0"
         id="stop13811" />
      <stop
         style="stop-color:#ffffff;stop-opacity:0.49803922;"
         offset="0.39750087"
         id="stop16787" />
      <stop
         style="stop-color:#ffffff;stop-opacity:1;"
         offset="0.39750087"
         id="stop16791" />
      <stop
         style="stop-color:#ffffff;stop-opacity:1;"
         offset="0.49719369"
         id="stop16789" />
      <stop
         style="stop-color:#ffffff;stop-opacity:0.49803922;"
         offset="0.49719369"
         id="stop16793" />
      <stop
         style="stop-color:#ffffff;stop-opacity:0.5;"
         offset="0.99989998"
         id="stop13813" />
      <stop
         style="stop-color:#ffffff;stop-opacity:1;"
         offset="1"
         id="stop13805" />
    </linearGradient>
    <linearGradient
       inkscape:collect="always"
       id="linearGradient918">
      <stop
         style="stop-color:#64baff;stop-opacity:1"
         offset="0"
         id="stop914" />
      <stop
         style="stop-color:#3689e6;stop-opacity:1"
         offset="1"
         id="stop916" />
    </linearGradient>
    <linearGradient
       inkscape:collect="always"
       xlink:href="#linearGradient918"
       id="linearGradient10797"
       x1="7.7475443"
       y1="-0.88666391"
       x2="7.7475443"
       y2="15.068983"
       gradientUnits="userSpaceOnUse"
       gradientTransform="translate(-1.591961,1.0000003)" />
    <linearGradient
       inkscape:collect="always"
       xlink:href="#linearGradient13807"
       id="linearGradient13809"
       x1="6.3374596"
       y1="3.0441422"
       x2="6.3374596"
       y2="13.002385"
       gradientUnits="userSpaceOnUse" />
  </defs>
  <path
     id="path27831"
     style="font-weight:900;font-size:18.1328px;font-family:'Inter V';-inkscape-font-specification:'Inter V Heavy';fill:url(#linearGradient10797);stroke-width:0.999996;stroke-linecap:butt;stroke-linejoin:miter;stroke-opacity:0.5;paint-order:fill markers stroke;font-variation-settings:normal;opacity:1;vector-effect:none;fill-opacity:1;stroke-miterlimit:4;stroke-dasharray:none;stroke-dashoffset:0;-inkscape-stroke:none;stop-color:#000000;stop-opacity:1;stroke:none"
     d="m 2.5,1.5 v 13 h 6.296875 c 0.9710991,0 1.806704,-0.159181 2.507813,-0.476562 0.701107,-0.317384 1.242236,-0.75228 1.621093,-1.306641 C 13.308996,12.162436 13.5,11.529298 13.5,10.818359 13.5,10.204754 13.360733,9.6715489 13.082031,9.21875 12.803332,8.7617194 12.429293,8.4046221 11.958984,8.1464844 11.488677,7.8841147 10.965445,7.7418621 10.390625,7.7207031 V 7.59375 C 10.908834,7.4921877 11.362431,7.3092445 11.75,7.046875 12.137569,6.7802739 12.43701,6.4501948 12.650391,6.0566406 12.868125,5.6630865 12.976562,5.2281895 12.976562,4.75 c 0,-0.6601554 -0.178069,-1.2340501 -0.535156,-1.7207031 C 12.088677,2.5426439 11.56394,2.1669919 10.867188,1.9003906 10.174789,1.6337895 9.3197818,1.5 8.3007812,1.5 Z m 3,2 H 7.8086172 C 8.2978136,3.5 8.7016488,3.6304218 9.0215079,3.890625 9.3413672,4.1457262 9.5000235,4.5153076 9.5000235,5 c 0,0.3214276 -0.07604,0.5958233 -0.2265625,0.8203125 C 9.1276426,6.0396997 8.923593,6.2068722 8.6601797,6.3242188 8.3967665,6.4415665 8.0953547,6.5 7.7519765,6.5 H 5.5 Z m 0,5 H 7.5664062 C 8.1254882,8.5 8.5875716,8.6745463 8.953125,9.0214844 9.3186792,9.3616202 9.5,9.853743 9.5,10.5 c 0,0.42857 -0.085787,0.792478 -0.2578125,1.091797 -0.16665,0.292517 -0.400128,0.515412 -0.7011719,0.671875 C 8.2399717,12.420141 7.8943855,12.5 7.5019531,12.5 H 5.5 Z"
     sodipodi:nodetypes="ccsscsccccccsccsccscscsscccscsccscc" />
  <path
     id="path27839"
     style="font-weight:900;font-size:18.1328px;font-family:'Inter V';-inkscape-font-specification:'Inter V Heavy';fill:none;stroke:#002e99;stroke-width:0.999999;stroke-linecap:round;stroke-linejoin:round;stroke-opacity:0.5;paint-order:markers fill stroke"
     d="m 2.5,1.5 v 13 h 6.296875 c 0.9710991,0 1.806704,-0.159181 2.507813,-0.476562 0.701107,-0.317384 1.242236,-0.75228 1.621093,-1.306641 C 13.308996,12.162436 13.5,11.529298 13.5,10.818359 13.5,10.204754 13.360733,9.6715489 13.082031,9.21875 12.803332,8.7617194 12.429293,8.4046221 11.958984,8.1464844 11.488677,7.8841147 10.965445,7.7418621 10.390625,7.7207031 V 7.59375 C 10.908834,7.4921877 11.362431,7.3092445 11.75,7.046875 12.137569,6.7802739 12.43701,6.4501948 12.650391,6.0566406 12.868125,5.6630865 12.976562,5.2281895 12.976562,4.75 c 0,-0.6601554 -0.178069,-1.2340501 -0.535156,-1.7207031 C 12.088677,2.5426439 11.56394,2.1669919 10.867188,1.9003906 10.174789,1.6337895 9.3197818,1.5 8.3007812,1.5 Z m 3,2 H 7.8086172 C 8.2978136,3.5 8.7016488,3.6304218 9.0215079,3.890625 9.3413672,4.1457262 9.5000235,4.5153076 9.5000235,5 c 0,0.3214276 -0.07604,0.5958233 -0.2265625,0.8203125 C 9.1276426,6.0396997 8.923593,6.2068722 8.6601797,6.3242188 8.3967665,6.4415665 8.0953547,6.5 7.7519765,6.5 H 5.5 Z m 0,5.0002578 h 2.0664062 c 0.559082,0 1.0211654,0.1745463 1.3867188,0.5214844 C 9.3186792,9.361878 9.5,9.853743 9.5,10.5 c 0,0.42857 -0.085787,0.792478 -0.2578125,1.091797 -0.16665,0.292517 -0.400128,0.515412 -0.7011719,0.671875 C 8.2399717,12.420141 7.8943855,12.5 7.5019531,12.5 H 5.5 Z"
     sodipodi:nodetypes="ccsscsccccccsccsccscscsscccscsccscc" />
  <path
     id="path13360"
     style="color:#000000;-inkscape-font-specification:'Inter V Heavy';font-variation-settings:normal;opacity:0.3;vector-effect:none;fill:url(#linearGradient13809);fill-opacity:1;stroke-width:1;stroke-linecap:butt;stroke-linejoin:miter;stroke-miterlimit:4;stroke-dasharray:none;stroke-dashoffset:0;stroke-opacity:1;-inkscape-stroke:none;paint-order:fill markers stroke;stop-color:#000000;stop-opacity:1"
     d="m 3,2 c 0,4 0,8 0,12 2.1522948,-0.0095 4.305597,0.02355 6.4570325,-0.02735 1.3105005,-0.101783 2.7289985,-0.704 3.2969145,-1.966794 C 13.280883,10.867629 12.97056,9.3198277 11.847656,8.6601562 11.358671,8.3362587 10.768532,8.2484614 10.202596,8.1850642 9.7157381,7.9943379 9.8141372,7.1238117 10.353516,7.0898438 11.453388,6.9138337 12.476057,5.9808885 12.475588,4.821191 12.545008,3.820123 11.896061,2.8673157 10.97893,2.4902284 9.5338499,1.8221708 7.9044673,2.0427353 6.3633892,2 5.2422595,2 4.1211297,2 3,2 Z M 4.359375,2.9941406 C 4.6190889,2.9525132 3.8375325,3.7354504 3.9924493,3.1805715 3.9227824,2.8860807 4.177799,3.041431 4.359375,2.9941406 Z m 2.5078125,0.00391 C 7.6767694,3.0118575 8.5743227,2.9012449 9.2542492,3.4384011 10.317023,4.1869327 10.235975,6.0097747 9.1068848,6.660547 8.2456265,7.1560465 7.2299533,6.9629315 6.2832391,7 5.9370757,6.9810034 5.5702318,7.061429 5.2441405,6.927737 4.8668814,6.6583848 5.0354349,6.1521968 5.0007761,5.7589544 5.0098834,4.9727042 4.9820473,4.1830468 5.00976,3.398438 5.0717382,3.047907 5.4488028,2.9622956 5.749928,3 c 0.3724216,-2.648e-4 0.7448457,0.00103 1.1172595,-0.00195 z m 3.5878905,0.3867187 c 0.63296,0.2072687 1.147311,0.8257193 1.016506,1.5176202 0.0113,0.384604 -0.474654,0.9716928 -0.693163,0.9055898 0.413479,-0.8013004 0.160102,-1.7170365 -0.323343,-2.42321 z M 4,6.5 C 3.9740938,7.0055131 4.8278992,7.3032683 4.8300202,7.5507253 4.4435801,7.5971121 4.091188,8.3794114 4,8.343777 4,7.7291847 4,7.1145923 4,6.5 Z m 2.7167969,1.4980469 c 0.8149334,-0.0052 1.7177515,-0.062626 2.38516,0.4994971 1.0054961,0.7528042 1.1419071,2.283086 0.5738275,3.342299 -0.4578748,0.844106 -1.462531,1.218137 -2.3838825,1.16266 -0.6067163,-0.0099 -1.2163443,0.0088 -1.8211989,-0.0103 C 4.9443927,12.953409 4.9761609,12.346181 5,11.962922 5.0107439,10.775502 4.9819615,9.5833605 5.00977,8.398438 5.0717418,8.0479046 5.4488039,7.9622954 5.749928,8 c 0.3222912,-2.702e-4 0.6445914,0.00105 0.9668689,-0.00195 z m 4.0781251,1.34375 c 0.828905,0.0569 1.345376,0.9677051 1.193164,1.7382551 -0.104842,0.89409 -0.929521,1.623065 -1.820117,1.667995 0.375792,-0.369107 0.664991,-0.80851 0.735142,-1.339204 0.158334,-0.681209 0.117532,-1.405654 -0.108189,-2.0670461 z M 4,12.5 c 0.1387141,0.248047 0.7259197,0.609559 0.074239,0.5117 C 3.9059058,12.934032 4.0421113,12.653697 4,12.5 Z" />
</svg>
