<?xml version="1.0" encoding="UTF-8" standalone="no"?>
<svg
   height="16"
   version="1.1"
   width="16"
   enable-background="new"
   id="svg2"
   sodipodi:docname="format-text-italic.svg"
   inkscape:version="1.2.2 (b0a8486541, 2022-12-01)"
   xmlns:inkscape="http://www.inkscape.org/namespaces/inkscape"
   xmlns:sodipodi="http://sodipodi.sourceforge.net/DTD/sodipodi-0.dtd"
   xmlns:xlink="http://www.w3.org/1999/xlink"
   xmlns="http://www.w3.org/2000/svg"
   xmlns:svg="http://www.w3.org/2000/svg"
   xmlns:rdf="http://www.w3.org/1999/02/22-rdf-syntax-ns#"
   xmlns:cc="http://creativecommons.org/ns#"
   xmlns:dc="http://purl.org/dc/elements/1.1/">
  <sodipodi:namedview
     id="namedview6644"
     pagecolor="#ffffff"
     bordercolor="#000000"
     borderopacity="0.25"
     inkscape:showpageshadow="2"
     inkscape:pageopacity="0.0"
     inkscape:pagecheckerboard="0"
     inkscape:deskcolor="#d1d1d1"
     showgrid="false"
     inkscape:zoom="45.254836"
     inkscape:cx="3.8338444"
     inkscape:cy="7.3472811"
     inkscape:window-width="1429"
     inkscape:window-height="846"
     inkscape:window-x="666"
     inkscape:window-y="83"
     inkscape:window-maximized="0"
     inkscape:current-layer="svg2" />
  <metadata
     id="metadata90">
    <rdf:RDF>
      <cc:Work
         rdf:about="">
        <dc:format>image/svg+xml</dc:format>
        <dc:type
           rdf:resource="http://purl.org/dc/dcmitype/StillImage" />
      </cc:Work>
    </rdf:RDF>
  </metadata>
  <defs
     id="defs7386">
    <linearGradient
       inkscape:collect="always"
       id="linearGradient922">
      <stop
         style="stop-color:#ffffff;stop-opacity:1;"
         offset="0"
         id="stop918" />
      <stop
         style="stop-color:#ffffff;stop-opacity:0.49803922;"
         offset="0"
         id="stop926" />
      <stop
         style="stop-color:#ffffff;stop-opacity:0.5;"
         offset="0.99989998"
         id="stop928" />
      <stop
         style="stop-color:#ffffff;stop-opacity:1;"
         offset="1"
         id="stop920" />
    </linearGradient>
    <linearGradient
       inkscape:collect="always"
       id="linearGradient24814">
      <stop
         style="stop-color:#64baff;stop-opacity:1"
         offset="0"
         id="stop24810" />
      <stop
         style="stop-color:#3689e6;stop-opacity:1"
         offset="1"
         id="stop24812" />
    </linearGradient>
    <linearGradient
       inkscape:collect="always"
       xlink:href="#linearGradient24814"
       id="linearGradient31712"
       gradientUnits="userSpaceOnUse"
       gradientTransform="translate(0.1281995,0.0625)"
       x1="2.6651487"
       y1="0.91470379"
       x2="2.6651487"
       y2="16.118464" />
    <linearGradient
       inkscape:collect="always"
       xlink:href="#linearGradient922"
       id="linearGradient924"
       x1="11.72966"
       y1="3.0020652"
       x2="11.72966"
       y2="13.00353"
       gradientUnits="userSpaceOnUse" />
  </defs>
  <path
     id="rect30311"
     style="opacity:1;fill:url(#linearGradient31712);fill-opacity:1;stroke:none;stroke-width:1.99999;stroke-opacity:1;paint-order:fill markers stroke;stop-color:#000000;font-variation-settings:normal;vector-effect:none;stroke-linecap:butt;stroke-linejoin:miter;stroke-miterlimit:4;stroke-dasharray:none;stroke-dashoffset:0;-inkscape-stroke:none;stop-opacity:1"
     d="M 6.5 1.5 L 6.5 3.5 L 8.8007812 3.5 L 5.1992188 12.5 L 2.5 12.5 L 2.5 14.5 L 9.5 14.5 L 9.5 12.5 L 7.1992188 12.5 L 10.800781 3.5 L 13.5 3.5 L 13.5 1.5 L 6.5 1.5 z " />
  <path
     id="path31448"
     style="color:#000000;fill:url(#linearGradient924);fill-opacity:1;stroke-linejoin:miter;-inkscape-stroke:none;paint-order:fill markers stroke;font-variation-settings:normal;opacity:0.3;vector-effect:none;stroke-width:1;stroke-linecap:butt;stroke-miterlimit:4;stroke-dasharray:none;stroke-dashoffset:0;stroke-opacity:1;stop-color:#000000;stop-opacity:1"
     d="M 7,2 V 3 H 8.8007812 C 9.1546508,2.9996657 9.3968955,3.3569258 9.265625,3.6855469 L 5.6640625,12.685547 C 5.5880847,12.87563 5.4039242,13.00021 5.1992188,13 H 3 v 1 H 9 V 13 H 7.1992188 C 6.8453492,13.000334 6.6031044,12.643074 6.734375,12.314453 L 10.335938,3.3144531 C 10.411916,3.1243698 10.596076,2.9997907 10.800781,3 H 13 V 2 Z M 8.8007812,2.5 H 10.800781 C 10.392082,2.5003797 10.024738,2.7494007 9.8730469,3.1289062 L 9.7519531,3.4296875 C 9.7167652,2.9233154 9.307825,2.523612 8.8007812,2.5 Z M 6.3027344,12.429688 C 6.261896,12.970527 6.6596006,13.445346 7.1992188,13.5 h -2 c 0.4086986,-3.8e-4 0.7760431,-0.2494 0.9277343,-0.628906 z"
     sodipodi:nodetypes="ccccccccccccccccccccccccccc" />
  <path
     id="rect30795"
     style="opacity:1;fill:none;fill-opacity:1;stroke:#002e99;stroke-width:1;stroke-opacity:0.5;paint-order:markers fill stroke;stop-color:#000000;stroke-dasharray:none;stroke-linejoin:round"
     d="M 6.5 1.5 L 6.5 3.5 L 8.8007812 3.5 L 5.1992188 12.5 L 2.5 12.5 L 2.5 14.5 L 9.5 14.5 L 9.5 12.5 L 7.1992188 12.5 L 10.800781 3.5 L 13.5 3.5 L 13.5 1.5 L 6.5 1.5 z " />
</svg>
