<?xml version="1.0" encoding="UTF-8" standalone="no"?>
<svg
   height="16"
   version="1.1"
   width="16"
   enable-background="new"
   id="svg2"
   sodipodi:docname="format-text-bold (copy 2).svg"
   inkscape:version="1.2.2 (b0a8486541, 2022-12-01)"
   xmlns:inkscape="http://www.inkscape.org/namespaces/inkscape"
   xmlns:sodipodi="http://sodipodi.sourceforge.net/DTD/sodipodi-0.dtd"
   xmlns:xlink="http://www.w3.org/1999/xlink"
   xmlns="http://www.w3.org/2000/svg"
   xmlns:svg="http://www.w3.org/2000/svg"
   xmlns:rdf="http://www.w3.org/1999/02/22-rdf-syntax-ns#"
   xmlns:cc="http://creativecommons.org/ns#"
   xmlns:dc="http://purl.org/dc/elements/1.1/">
  <sodipodi:namedview
     id="namedview6644"
     pagecolor="#ffffff"
     bordercolor="#000000"
     borderopacity="0.25"
     inkscape:showpageshadow="2"
     inkscape:pageopacity="0.0"
     inkscape:pagecheckerboard="0"
     inkscape:deskcolor="#d1d1d1"
     showgrid="false"
     inkscape:zoom="90.509668"
     inkscape:cx="2.9665339"
     inkscape:cy="7.7174076"
     inkscape:window-width="1427"
     inkscape:window-height="920"
     inkscape:window-x="76"
     inkscape:window-y="726"
     inkscape:window-maximized="0"
     inkscape:current-layer="svg2" />
  <metadata
     id="metadata90">
    <rdf:RDF>
      <cc:Work
         rdf:about="">
        <dc:format>image/svg+xml</dc:format>
        <dc:type
           rdf:resource="http://purl.org/dc/dcmitype/StillImage" />
      </cc:Work>
    </rdf:RDF>
  </metadata>
  <defs
     id="defs7386">
    <linearGradient
       inkscape:collect="always"
       id="linearGradient13807">
      <stop
         style="stop-color:#ffffff;stop-opacity:1;"
         offset="0"
         id="stop13803" />
      <stop
         style="stop-color:#ffffff;stop-opacity:0.49803922;"
         offset="0"
         id="stop13811" />
      <stop
         style="stop-color:#ffffff;stop-opacity:0.49803922;"
         offset="0.39750087"
         id="stop16787" />
      <stop
         style="stop-color:#ffffff;stop-opacity:1;"
         offset="0.39750087"
         id="stop16791" />
      <stop
         style="stop-color:#ffffff;stop-opacity:1;"
         offset="0.49719369"
         id="stop16789" />
      <stop
         style="stop-color:#ffffff;stop-opacity:0.49803922;"
         offset="0.49719369"
         id="stop16793" />
      <stop
         style="stop-color:#ffffff;stop-opacity:0.5;"
         offset="0.99989998"
         id="stop13813" />
      <stop
         style="stop-color:#ffffff;stop-opacity:1;"
         offset="1"
         id="stop13805" />
    </linearGradient>
    <linearGradient
       inkscape:collect="always"
       id="linearGradient918">
      <stop
         style="stop-color:#64baff;stop-opacity:1"
         offset="0"
         id="stop914" />
      <stop
         style="stop-color:#3689e6;stop-opacity:1"
         offset="1"
         id="stop916" />
    </linearGradient>
    <linearGradient
       inkscape:collect="always"
       xlink:href="#linearGradient918"
       id="linearGradient10797"
       x1="7.7475443"
       y1="-0.88666391"
       x2="7.7475443"
       y2="15.068983"
       gradientUnits="userSpaceOnUse"
       gradientTransform="translate(-1.591961,1.0000003)" />
    <linearGradient
       inkscape:collect="always"
       xlink:href="#linearGradient13807"
       id="linearGradient13809"
       x1="6.3374596"
       y1="3.0441422"
       x2="6.3374596"
       y2="13.002385"
       gradientUnits="userSpaceOnUse" />
  </defs>
  <path
     id="path27831"
     style="font-weight:900;font-size:18.1328px;font-family:'Inter V';-inkscape-font-specification:'Inter V Heavy';fill:url(#linearGradient10797);stroke-width:0.999996;stroke-linecap:butt;stroke-linejoin:miter;stroke-opacity:0.5;paint-order:fill markers stroke;font-variation-settings:normal;opacity:1;vector-effect:none;fill-opacity:1;stroke-miterlimit:4;stroke-dasharray:none;stroke-dashoffset:0;-inkscape-stroke:none;stop-color:#000000;stop-opacity:1;stroke:none"
     d="m 2.5,1.5 v 13 h 6.296875 c 0.9710991,0 1.806704,-0.159181 2.507813,-0.476562 0.701107,-0.317384 1.242236,-0.75228 1.621093,-1.306641 C 13.308996,12.162436 13.5,11.529298 13.5,10.818359 13.5,10.204754 13.360733,9.6715489 13.082031,9.21875 12.803332,8.7617194 12.429293,8.4046221 11.958984,8.1464844 11.488677,7.8841147 10.965445,7.7418621 10.390625,7.7207031 V 7.59375 C 10.908834,7.4921877 11.362431,7.3092445 11.75,7.046875 12.137569,6.7802739 12.43701,6.4501948 12.650391,6.0566406 12.868125,5.6630865 12.976562,5.2281895 12.976562,4.75 c 0,-0.6601554 -0.178069,-1.2340501 -0.535156,-1.7207031 C 12.088677,2.5426439 11.56394,2.1669919 10.867188,1.9003906 10.174789,1.6337895 9.3197818,1.5 8.3007812,1.5 Z m 3,2 H 7.8086172 C 8.2978136,3.5 8.7016488,3.6304218 9.0215079,3.890625 9.3413672,4.1457262 9.5000235,4.5153076 9.5000235,5 c 0,0.3214276 -0.07604,0.5958233 -0.2265625,0.8203125 C 9.1276426,6.0396997 8.923593,6.2068722 8.6601797,6.3242188 8.3967665,6.4415665 8.0953547,6.5 7.7519765,6.5 H 5.5 Z m 0,5 H 7.5664062 C 8.1254882,8.5 8.5875716,8.6745463 8.953125,9.0214844 9.3186792,9.3616202 9.5,9.853743 9.5,10.5 c 0,0.42857 -0.085787,0.792478 -0.2578125,1.091797 -0.16665,0.292517 -0.400128,0.515412 -0.7011719,0.671875 C 8.2399717,12.420141 7.8943855,12.5 7.5019531,12.5 H 5.5 Z"
     sodipodi:nodetypes="ccsscsccccccsccsccscscsscccscsccscc" />
  <path
     id="path13360"
     style="color:#000000;-inkscape-font-specification:'Inter V Heavy';font-variation-settings:normal;opacity:0.5;vector-effect:none;fill:url(#linearGradient13809);fill-opacity:1;stroke-width:1;stroke-linecap:butt;stroke-linejoin:miter;stroke-miterlimit:4;stroke-dasharray:none;stroke-dashoffset:0;stroke-opacity:1;-inkscape-stroke:none;paint-order:fill markers stroke;stop-color:#000000;stop-opacity:1"
     d="M 8.1191406 1.9980469 C 7.530777 1.9953283 6.941185 2.0160257 6.3632812 2 L 3 2 L 3 7 L 4 7 L 4 6.5 C 3.9740938 7.0055126 4.8279571 7.3033245 4.8300781 7.5507812 C 4.4436384 7.597168 4.0911879 8.3793844 4 8.34375 L 4 8 L 3 8 L 3 14 C 5.1522926 13.9905 7.3055979 14.023556 9.4570312 13.972656 C 10.76753 13.870873 12.185991 13.268652 12.753906 12.005859 C 13.280842 10.867634 12.970559 9.3198271 11.847656 8.6601562 C 11.358672 8.3362591 10.76906 8.248944 10.203125 8.1855469 C 9.7162676 7.9948208 9.8141374 7.1238116 10.353516 7.0898438 C 11.453387 6.9138338 12.477031 5.9800088 12.476562 4.8203125 C 12.545982 3.8192455 11.895646 2.8673213 10.978516 2.4902344 C 10.075341 2.0726988 9.0997466 2.0025778 8.1191406 1.9980469 z M 5.6347656 2.9921875 C 5.6740156 2.9927704 5.7123594 2.995287 5.75 3 C 6.1224212 2.9997352 6.4947741 3.0010263 6.8671875 2.9980469 C 7.6767686 3.0118538 8.5739804 2.9003443 9.2539062 3.4375 C 10.316679 4.1860309 10.236511 6.0093846 9.1074219 6.6601562 C 8.2461644 7.1556553 7.2299164 6.9629315 6.2832031 7 C 5.9370401 6.9810034 5.5702316 7.0614262 5.2441406 6.9277344 C 4.8668819 6.6583824 5.0346588 6.1530076 5 5.7597656 C 5.0091073 4.9735162 4.982053 4.1830455 5.0097656 3.3984375 C 5.0639965 3.0917232 5.3600157 2.9881075 5.6347656 2.9921875 z M 4.0820312 2.9941406 C 4.159774 2.9902556 4.2685871 3.0177858 4.359375 2.9941406 C 4.6190886 2.9525133 3.8372709 3.7345658 3.9921875 3.1796875 C 3.9573541 3.0324422 4.0042885 2.9980257 4.0820312 2.9941406 z M 10.455078 3.3847656 C 11.088037 3.5920341 11.601508 4.2104435 11.470703 4.9023438 C 11.482003 5.2869474 10.997806 5.8746967 10.779297 5.8085938 C 11.192775 5.0072942 10.938523 4.0909384 10.455078 3.3847656 z M 5.6347656 7.9921875 C 5.6740154 7.9927704 5.7123595 7.9952869 5.75 8 C 6.0722909 7.9997298 6.3945197 8.0010469 6.7167969 7.9980469 C 7.5317295 7.9928469 8.4341547 7.9359243 9.1015625 8.4980469 C 10.107058 9.2508503 10.24386 10.780632 9.6757812 11.839844 C 9.2179069 12.683949 8.2123662 13.05743 7.2910156 13.001953 C 6.6842999 12.992053 6.0755571 13.011287 5.4707031 12.992188 C 4.9443934 12.953394 4.9761609 12.346149 5 11.962891 C 5.0107439 10.775472 4.9819572 9.5833588 5.0097656 8.3984375 C 5.0639909 8.0917211 5.360017 7.988107 5.6347656 7.9921875 z M 10.794922 9.3417969 C 11.623826 9.3986968 12.140493 10.309529 11.988281 11.080078 C 11.883439 11.974167 11.058564 12.703117 10.167969 12.748047 C 10.54376 12.37894 10.832193 11.938897 10.902344 11.408203 C 11.060678 10.726995 11.020643 10.003188 10.794922 9.3417969 z M 4 12.5 C 4.138714 12.748047 4.7258988 13.109578 4.0742188 13.011719 C 3.9058857 12.934051 4.0421113 12.653697 4 12.5 z " />
  <rect
     style="opacity:0.15;fill:#ffffff;stroke-width:1;stroke-linejoin:round;-inkscape-stroke:none;paint-order:fill markers stroke;stop-color:#000000"
     id="rect426"
     width="1"
     height="1"
     x="3"
     y="7" />
  <path
     id="path27839"
     style="font-weight:900;font-size:18.1328px;font-family:'Inter V';-inkscape-font-specification:'Inter V Heavy';fill:none;stroke:#002e99;stroke-width:0.999999;stroke-linecap:round;stroke-linejoin:round;stroke-opacity:0.5;paint-order:markers fill stroke"
     d="m 2.5,1.5 v 13 h 6.296875 c 0.9710991,0 1.806704,-0.159181 2.507813,-0.476562 0.701107,-0.317384 1.242236,-0.75228 1.621093,-1.306641 C 13.308996,12.162436 13.5,11.529298 13.5,10.818359 13.5,10.204754 13.360733,9.6715489 13.082031,9.21875 12.803332,8.7617194 12.429293,8.4046221 11.958984,8.1464844 11.488677,7.8841147 10.965445,7.7418621 10.390625,7.7207031 V 7.59375 C 10.908834,7.4921877 11.362431,7.3092445 11.75,7.046875 12.137569,6.7802739 12.43701,6.4501948 12.650391,6.0566406 12.868125,5.6630865 12.976562,5.2281895 12.976562,4.75 c 0,-0.6601554 -0.178069,-1.2340501 -0.535156,-1.7207031 C 12.088677,2.5426439 11.56394,2.1669919 10.867188,1.9003906 10.174789,1.6337895 9.3197818,1.5 8.3007812,1.5 Z m 3,2 H 7.8086172 C 8.2978136,3.5 8.7016488,3.6304218 9.0215079,3.890625 9.3413672,4.1457262 9.5000235,4.5153076 9.5000235,5 c 0,0.3214276 -0.07604,0.5958233 -0.2265625,0.8203125 C 9.1276426,6.0396997 8.923593,6.2068722 8.6601797,6.3242188 8.3967665,6.4415665 8.0953547,6.5 7.7519765,6.5 H 5.5 Z m 0,5.0002578 h 2.0664062 c 0.559082,0 1.0211654,0.1745463 1.3867188,0.5214844 C 9.3186792,9.361878 9.5,9.853743 9.5,10.5 c 0,0.42857 -0.085787,0.792478 -0.2578125,1.091797 -0.16665,0.292517 -0.400128,0.515412 -0.7011719,0.671875 C 8.2399717,12.420141 7.8943855,12.5 7.5019531,12.5 H 5.5 Z"
     sodipodi:nodetypes="ccsscsccccccsccsccscscsscccscsccscc" />
</svg>
