<?xml version="1.0" encoding="UTF-8" standalone="no"?>
<svg
   version="1.0"
   width="16"
   height="16"
   id="svg2526"
   inkscape:version="1.1.1 (3bf5ae0d25, 2021-09-20)"
   sodipodi:docname="video-x-generic.svg"
   xmlns:inkscape="http://www.inkscape.org/namespaces/inkscape"
   xmlns:sodipodi="http://sodipodi.sourceforge.net/DTD/sodipodi-0.dtd"
   xmlns:xlink="http://www.w3.org/1999/xlink"
   xmlns="http://www.w3.org/2000/svg"
   xmlns:svg="http://www.w3.org/2000/svg"
   xmlns:rdf="http://www.w3.org/1999/02/22-rdf-syntax-ns#"
   xmlns:cc="http://creativecommons.org/ns#"
   xmlns:dc="http://purl.org/dc/elements/1.1/">
  <sodipodi:namedview
     pagecolor="#ffffff"
     bordercolor="#666666"
     borderopacity="1"
     objecttolerance="10"
     gridtolerance="10"
     guidetolerance="10"
     inkscape:pageopacity="0"
     inkscape:pageshadow="2"
     inkscape:window-width="1396"
     inkscape:window-height="955"
     id="namedview121"
     showgrid="false"
     inkscape:zoom="5.6568543"
     inkscape:cx="28.461048"
     inkscape:cy="4.4194174"
     inkscape:window-x="522"
     inkscape:window-y="73"
     inkscape:window-maximized="0"
     inkscape:current-layer="svg2526"
     inkscape:pagecheckerboard="0"
     width="16px" />
  <metadata
     id="metadata58">
    <rdf:RDF>
      <cc:Work
         rdf:about="">
        <dc:format>image/svg+xml</dc:format>
        <dc:type
           rdf:resource="http://purl.org/dc/dcmitype/StillImage" />
      </cc:Work>
    </rdf:RDF>
  </metadata>
  <defs
     id="defs2528">
    <linearGradient
       id="linearGradient5060">
      <stop
         id="stop5062"
         style="stop-color:#000000;stop-opacity:1"
         offset="0" />
      <stop
         id="stop5064"
         style="stop-color:#000000;stop-opacity:0"
         offset="1" />
    </linearGradient>
    <linearGradient
       id="linearGradient5048">
      <stop
         id="stop5050"
         style="stop-color:#000000;stop-opacity:0"
         offset="0" />
      <stop
         id="stop5056"
         style="stop-color:#000000;stop-opacity:1"
         offset="0.5" />
      <stop
         id="stop5052"
         style="stop-color:#000000;stop-opacity:0"
         offset="1" />
    </linearGradient>
    <linearGradient
       x1="302.85715"
       y1="366.64789"
       x2="302.85715"
       y2="609.50507"
       id="linearGradient3188"
       xlink:href="#linearGradient5048"
       gradientUnits="userSpaceOnUse"
       gradientTransform="matrix(0.08449704,0,0,0.01235294,-6.5396456,38.470822)" />
    <radialGradient
       cx="605.71429"
       cy="486.64789"
       r="117.14286"
       fx="605.71429"
       fy="486.64789"
       id="radialGradient3190"
       xlink:href="#linearGradient5060"
       gradientUnits="userSpaceOnUse"
       gradientTransform="matrix(-0.0289166,0,0,0.01235294,21.026894,38.470848)" />
    <radialGradient
       cx="605.71429"
       cy="486.64789"
       r="117.14286"
       fx="605.71429"
       fy="486.64789"
       id="radialGradient3192"
       xlink:href="#linearGradient5060"
       gradientUnits="userSpaceOnUse"
       gradientTransform="matrix(0.02891661,0,0,0.01235294,26.973101,38.470848)" />
    <linearGradient
       id="linearGradient2867-449-88-871-390-598-476-591-434-148-57-177-8-3-3-6-4-8-8-8-5-7">
      <stop
         id="stop3750-1-0-7-6-6-1-3-9-3-9"
         style="stop-color:#505050;stop-opacity:1"
         offset="0" />
      <stop
         id="stop3752-3-7-4-0-32-8-923-0-7-0"
         style="stop-color:#2b2b2b;stop-opacity:1"
         offset="0.26238" />
      <stop
         id="stop3754-1-8-5-2-7-6-7-1-9-1"
         style="stop-color:#0a0a0a;stop-opacity:1"
         offset="0.704952" />
      <stop
         id="stop3756-1-6-2-6-6-1-96-6-0-1"
         style="stop-color:#000000;stop-opacity:1"
         offset="1" />
    </linearGradient>
    <radialGradient
       cx="7.1183534"
       cy="9.9571075"
       r="12.671875"
       fx="7.1183534"
       fy="9.9571075"
       id="radialGradient3220"
       xlink:href="#linearGradient2867-449-88-871-390-598-476-591-434-148-57-177-8-3-3-6-4-8-8-8-5-7"
       gradientUnits="userSpaceOnUse"
       gradientTransform="matrix(0,3.0467483,-4.6036105,0,54.179595,-25.795842)" />
  </defs>
  <g
     transform="matrix(0.33333333,0,0,0.66666666,8e-8,-14.666666)"
     id="g3257"
     style="opacity:0.4;stroke-width:1.99999">
    <rect
       width="40.799999"
       height="2.9999998"
       x="3.5999999"
       y="43"
       id="rect2879"
       style="display:inline;overflow:visible;visibility:visible;fill:url(#linearGradient3188);fill-opacity:1;fill-rule:nonzero;stroke:none;stroke-width:1.99999;marker:none" />
    <path
       d="m 3.6,43.00013 c 0,0 0,2.999835 0,2.999835 C 2.1108662,46.005612 0,45.327854 0,44.499854 0,43.671856 1.6617608,43.000131 3.6,43.00013 Z"
       id="path2881"
       style="display:inline;overflow:visible;visibility:visible;fill:url(#radialGradient3190);fill-opacity:1;fill-rule:nonzero;stroke:none;stroke-width:1.99999;marker:none" />
    <path
       d="m 44.4,43.00013 c 0,0 0,2.999835 0,2.999835 1.489133,0.0056 3.6,-0.672111 3.6,-1.500111 0,-0.827998 -1.661761,-1.499723 -3.6,-1.499724 z"
       id="path2883"
       style="display:inline;overflow:visible;visibility:visible;fill:url(#radialGradient3192);fill-opacity:1;fill-rule:nonzero;stroke:none;stroke-width:1.99999;marker:none" />
  </g>
  <rect
     width="16"
     height="13"
     rx="1"
     ry="1"
     x="4.7683716e-07"
     y="2"
     id="rect5505-21-3-8-5-2"
     style="color:#000000;display:inline;overflow:visible;visibility:visible;opacity:0.9;fill:url(#radialGradient3220);fill-opacity:1;fill-rule:nonzero;stroke:none;stroke-width:0.999991;marker:none;enable-background:accumulate" />
  <g
     transform="matrix(0.48388669,0,0,0.47500599,24.679848,11.083103)"
     id="g3349"
     style="stroke-width:2.08583" />
  <path
     id="path3553"
     d="M 3.4255859,5 C 3.1881572,5 2.9998047,5.2054587 2.9998047,5.4492188 V 13.550781 C 2.9998047,13.794541 3.1881572,14 3.4255859,14 h 9.1488281 c 0.237428,0 0.425781,-0.205459 0.425781,-0.449219 V 5.4492188 C 13.000195,5.2054587 12.811842,5 12.574414,5 Z M 6.4001953,6 H 9.5998047 C 9.8214053,6 10.000195,6.1787906 10.000195,6.4003906 V 8.5996094 C 10.000195,8.8212094 9.8214053,9 9.5998047,9 H 6.4001953 C 6.1785954,9 5.9998047,8.8212094 5.9998047,8.5996094 V 6.4003906 C 5.9998047,6.1787906 6.1785953,6 6.4001953,6 Z M 4,6 H 5 V 7 H 4 Z m 7,0 h 1 V 7 H 11 Z M 4,8 H 5 V 9 H 4 Z m 7,0 h 1 v 1 h -1 z m -4.5998047,2 h 3.1996094 c 0.2216006,0 0.4003903,0.178791 0.4003903,0.400391 v 2.199218 C 10.000195,12.821209 9.8214053,13 9.5998047,13 H 6.4001953 C 6.1785954,13 5.9998047,12.821209 5.9998047,12.599609 V 10.400391 C 5.9998047,10.178791 6.1785953,10 6.4001953,10 Z M 4,10 h 1 v 1 H 4 Z m 7,0 h 1 v 1 h -1 z m -7,2 h 1 v 1 H 4 Z m 7,0 h 1 v 1 h -1 z"
     style="color:#000000;display:inline;overflow:visible;visibility:visible;fill:#171717;fill-opacity:1;fill-rule:nonzero;stroke:none;stroke-width:1;marker:none;enable-background:accumulate"
     sodipodi:nodetypes="ssssssssssssssssssccccccccccccccccccccssssssssscccccccccccccccccccc" />
  <path
     id="rect3032-8-9-3"
     d="M 3.4255859,4 C 3.1881572,4 2.9998047,4.2054587 2.9998047,4.4492188 V 12.550781 C 2.9998047,12.794541 3.1881572,13 3.4255859,13 h 9.1488281 c 0.237428,0 0.425781,-0.205459 0.425781,-0.449219 V 4.4492188 C 13.000195,4.2054587 12.811842,4 12.574414,4 Z M 6.4001953,5 H 9.5998047 C 9.8214053,5 10.000195,5.1787906 10.000195,5.4003906 V 7.5996094 C 10.000195,7.8212094 9.8214053,8 9.5998047,8 H 6.4001953 C 6.1785954,8 5.9998047,7.8212094 5.9998047,7.5996094 V 5.4003906 C 5.9998047,5.1787906 6.1785953,5 6.4001953,5 Z M 4,5 H 5 V 6 H 4 Z m 7,0 h 1 V 6 H 11 Z M 4,7 H 5 V 8 H 4 Z m 7,0 h 1 V 8 H 11 Z M 6.4001953,9 H 9.5998047 C 9.8214053,9 10.000195,9.1787906 10.000195,9.4003906 V 11.599609 C 10.000195,11.821209 9.8214053,12 9.5998047,12 H 6.4001953 C 6.1785954,12 5.9998047,11.821209 5.9998047,11.599609 V 9.4003906 C 5.9998047,9.1787906 6.1785953,9 6.4001953,9 Z M 4,9 h 1 v 1 H 4 Z m 7,0 h 1 v 1 h -1 z m -7,2 h 1 v 1 H 4 Z m 7,0 h 1 v 1 h -1 z"
     style="color:#000000;display:inline;overflow:visible;visibility:visible;fill:#ffffff;fill-opacity:1;fill-rule:nonzero;stroke:none;stroke-width:1;marker:none;enable-background:accumulate"
     sodipodi:nodetypes="ssssssssssssssssssccccccccccccccccccccssssssssscccccccccccccccccccc" />
</svg>
